<svg xmlns="http://www.w3.org/2000/svg" height="48" viewBox="0 -960 960 960" width="48"><path d="M735.848-630.087h74.674v-128.761h128.521v-74.674H810.522v-128.761h-74.674v128.761H607.087v74.674h128.761v128.761ZM479.979-484.478q31.144 0 53.844-22.179 22.699-22.178 22.699-53.322 0-31.144-22.758-53.844-22.758-22.699-53.903-22.699-31.144 0-53.263 22.758-22.12 22.758-22.12 53.903 0 31.144 22.179 53.263 22.178 22.12 53.322 22.12ZM480-69.13Q315.049-209.11 233.449-329.438q-81.601-120.328-81.601-222.593 0-154.172 98.971-245.646 98.972-91.475 229.224-91.475 16.879 0 33.468 1.63 16.589 1.631 33.576 5.049v79.386q-15.761-4-33.016-6.38-17.255-2.381-34.071-2.381-105.565 0-178.206 72.753-72.642 72.753-72.642 186.854 0 73.763 62.46 168.681Q354.072-288.643 480-170.87q123.609-113.326 185.25-206.25 61.641-92.923 65.359-164.728 0-7-.5-14.239-.5-7.239-1.5-14h78.543q1 6.761 1 14v14.239q-3.956 101-85.435 218.739Q641.239-205.37 480-69.13Zm0-492.196Z"/></svg>