<svg id="svg" version="1.1" xmlns="http://www.w3.org/2000/svg" xmlns:xlink="http://www.w3.org/1999/xlink" width="400" height="400" viewBox="0, 0, 400,400"><g id="svgg"><path id="path0" d="M341.800 0.800 C 341.663 1.021,339.863 1.200,337.776 1.200 C 335.525 1.200,334.000 1.362,334.000 1.600 C 334.000 1.820,333.280 2.000,332.400 2.000 C 331.520 2.000,330.800 2.180,330.800 2.400 C 330.800 2.620,330.260 2.800,329.600 2.800 C 328.940 2.800,328.400 2.980,328.400 3.200 C 328.400 3.420,327.860 3.600,327.200 3.600 C 326.540 3.600,326.000 3.780,326.000 4.000 C 326.000 4.220,325.730 4.400,325.400 4.400 C 325.070 4.400,324.800 4.580,324.800 4.800 C 324.800 5.020,324.440 5.200,324.000 5.200 C 323.560 5.200,323.200 5.380,323.200 5.600 C 323.200 5.820,322.840 6.000,322.400 6.000 C 321.960 6.000,321.600 6.180,321.600 6.400 C 321.600 6.620,321.240 6.800,320.800 6.800 C 320.360 6.800,320.000 6.980,320.000 7.200 C 320.000 7.420,319.717 7.600,319.371 7.600 C 319.026 7.600,318.492 7.825,318.185 8.100 C 316.851 9.297,316.407 9.600,315.991 9.600 C 315.747 9.600,314.671 10.500,313.600 11.600 C 312.529 12.700,311.415 13.605,311.126 13.612 C 310.837 13.619,310.150 14.173,309.600 14.845 C 309.050 15.516,306.572 18.075,304.092 20.533 C 301.613 22.990,297.743 26.856,295.492 29.125 C 293.242 31.394,289.368 35.264,286.884 37.725 C 284.400 40.186,280.710 43.865,278.684 45.901 C 276.658 47.936,272.975 51.626,270.500 54.101 C 268.025 56.575,264.335 60.265,262.300 62.301 C 260.265 64.336,256.572 68.026,254.092 70.501 C 251.613 72.975,247.743 76.856,245.492 79.125 C 243.242 81.394,239.368 85.264,236.884 87.725 C 234.400 90.186,230.710 93.865,228.684 95.901 C 225.300 99.300,222.789 101.813,212.301 112.300 C 210.265 114.335,206.575 118.025,204.101 120.500 C 201.626 122.975,197.936 126.658,195.901 128.684 C 193.865 130.710,190.186 134.400,187.725 136.884 C 185.264 139.368,181.394 143.242,179.125 145.492 C 176.856 147.743,172.975 151.613,170.501 154.092 C 168.026 156.572,164.336 160.265,162.301 162.300 C 160.265 164.335,156.575 168.025,154.101 170.500 C 151.626 172.975,147.936 176.658,145.901 178.684 C 139.308 185.247,133.200 191.613,133.200 191.922 C 133.200 192.088,132.840 192.483,132.400 192.800 C 131.960 193.117,131.600 193.697,131.600 194.088 C 131.600 194.480,131.420 194.800,131.200 194.800 C 130.980 194.800,130.800 195.340,130.800 196.000 C 130.800 196.660,130.620 197.200,130.400 197.200 C 130.180 197.200,130.000 197.740,130.000 198.400 C 130.000 199.060,129.820 199.600,129.600 199.600 C 129.380 199.600,129.200 200.320,129.200 201.200 C 129.200 202.080,129.020 202.800,128.800 202.800 C 128.580 202.800,128.400 203.520,128.400 204.400 C 128.400 205.280,128.220 206.000,128.000 206.000 C 127.780 206.000,127.600 206.540,127.600 207.200 C 127.600 207.860,127.420 208.400,127.200 208.400 C 126.980 208.400,126.800 209.030,126.800 209.800 C 126.800 210.570,126.620 211.200,126.400 211.200 C 126.180 211.200,126.000 211.729,126.000 212.376 C 126.000 213.023,125.835 213.655,125.634 213.779 C 125.433 213.904,125.141 215.354,124.987 217.003 C 124.832 218.651,124.547 220.000,124.353 220.000 C 124.159 220.000,124.000 220.540,124.000 221.200 C 124.000 221.860,123.820 222.400,123.600 222.400 C 123.380 222.400,123.200 223.030,123.200 223.800 C 123.200 224.570,123.020 225.200,122.800 225.200 C 122.580 225.200,122.400 225.740,122.400 226.400 C 122.400 227.060,122.220 227.600,122.000 227.600 C 121.780 227.600,121.600 228.320,121.600 229.200 C 121.600 230.080,121.420 230.800,121.200 230.800 C 120.980 230.800,120.800 231.520,120.800 232.400 C 120.800 233.280,120.620 234.000,120.400 234.000 C 120.180 234.000,120.000 234.540,120.000 235.200 C 120.000 235.860,119.820 236.400,119.600 236.400 C 119.380 236.400,119.200 237.120,119.200 238.000 C 119.200 238.880,119.020 239.600,118.800 239.600 C 118.580 239.600,118.400 240.230,118.400 241.000 C 118.400 241.770,118.220 242.400,118.000 242.400 C 117.780 242.400,117.600 242.940,117.600 243.600 C 117.600 244.260,117.420 244.800,117.200 244.800 C 116.980 244.800,116.800 245.520,116.800 246.400 C 116.800 247.280,116.620 248.000,116.400 248.000 C 116.180 248.000,116.000 248.540,116.000 249.200 C 116.000 249.860,115.820 250.400,115.600 250.400 C 115.380 250.400,115.200 251.120,115.200 252.000 C 115.200 252.880,115.020 253.600,114.800 253.600 C 114.580 253.600,114.400 254.320,114.400 255.200 C 114.400 256.080,114.220 256.800,114.000 256.800 C 113.780 256.800,113.600 257.250,113.600 257.800 C 113.600 258.350,113.420 258.800,113.200 258.800 C 112.980 258.800,112.800 259.520,112.800 260.400 C 112.800 261.280,112.620 262.000,112.400 262.000 C 112.180 262.000,112.000 262.540,112.000 263.200 C 112.000 263.860,111.820 264.400,111.600 264.400 C 111.380 264.400,111.200 265.120,111.200 266.000 C 111.200 266.880,111.020 267.600,110.800 267.600 C 110.580 267.600,110.400 268.320,110.400 269.200 C 110.400 270.080,110.220 270.800,110.000 270.800 C 109.780 270.800,109.600 271.340,109.600 272.000 C 109.600 272.660,109.435 273.200,109.234 273.200 C 109.033 273.200,108.742 274.550,108.587 276.200 C 108.433 277.850,108.147 279.200,107.953 279.200 C 107.759 279.200,107.600 280.100,107.600 281.200 C 107.600 282.300,107.420 283.200,107.200 283.200 C 106.980 283.200,106.800 283.560,106.800 284.000 C 106.800 284.440,106.980 284.800,107.200 284.800 C 107.420 284.800,107.600 285.520,107.600 286.400 C 107.600 287.280,107.760 288.000,107.955 288.000 C 108.151 288.000,108.423 288.600,108.561 289.333 C 108.822 290.723,110.375 292.400,111.403 292.400 C 111.731 292.400,112.000 292.580,112.000 292.800 C 112.000 293.020,112.360 293.200,112.800 293.200 C 113.240 293.200,113.600 293.380,113.600 293.600 C 113.600 293.820,114.320 294.000,115.200 294.000 C 116.080 294.000,116.800 294.180,116.800 294.400 C 116.800 294.620,117.160 294.800,117.600 294.800 C 118.040 294.800,118.400 294.620,118.400 294.400 C 118.400 294.180,119.300 294.000,120.400 294.000 C 121.500 294.000,122.400 293.820,122.400 293.600 C 122.400 293.380,123.030 293.200,123.800 293.200 C 124.570 293.200,125.200 293.020,125.200 292.800 C 125.200 292.580,125.920 292.400,126.800 292.400 C 127.680 292.400,128.400 292.231,128.400 292.024 C 128.400 291.818,129.660 291.524,131.200 291.373 C 132.740 291.221,134.000 290.940,134.000 290.748 C 134.000 290.557,134.720 290.400,135.600 290.400 C 136.480 290.400,137.200 290.220,137.200 290.000 C 137.200 289.780,137.740 289.600,138.400 289.600 C 139.060 289.600,139.600 289.420,139.600 289.200 C 139.600 288.980,140.230 288.800,141.000 288.800 C 141.770 288.800,142.400 288.620,142.400 288.400 C 142.400 288.180,142.940 288.000,143.600 288.000 C 144.260 288.000,144.800 287.820,144.800 287.600 C 144.800 287.380,145.520 287.200,146.400 287.200 C 147.280 287.200,148.000 287.020,148.000 286.800 C 148.000 286.580,148.720 286.400,149.600 286.400 C 150.480 286.400,151.200 286.220,151.200 286.000 C 151.200 285.780,151.740 285.600,152.400 285.600 C 153.060 285.600,153.600 285.420,153.600 285.200 C 153.600 284.980,154.320 284.800,155.200 284.800 C 156.080 284.800,156.800 284.620,156.800 284.400 C 156.800 284.180,157.250 284.000,157.800 284.000 C 158.350 284.000,158.800 283.820,158.800 283.600 C 158.800 283.380,159.520 283.200,160.400 283.200 C 161.280 283.200,162.000 283.020,162.000 282.800 C 162.000 282.580,162.720 282.400,163.600 282.400 C 164.480 282.400,165.200 282.220,165.200 282.000 C 165.200 281.780,165.740 281.600,166.400 281.600 C 167.060 281.600,167.600 281.420,167.600 281.200 C 167.600 280.980,168.320 280.800,169.200 280.800 C 170.080 280.800,170.800 280.620,170.800 280.400 C 170.800 280.180,171.340 280.000,172.000 280.000 C 172.660 280.000,173.200 279.820,173.200 279.600 C 173.200 279.380,173.830 279.200,174.600 279.200 C 175.370 279.200,176.000 279.020,176.000 278.800 C 176.000 278.580,176.720 278.400,177.600 278.400 C 178.480 278.400,179.200 278.220,179.200 278.000 C 179.200 277.780,179.740 277.600,180.400 277.600 C 181.060 277.600,181.600 277.420,181.600 277.200 C 181.600 276.980,182.320 276.800,183.200 276.800 C 184.080 276.800,184.800 276.620,184.800 276.400 C 184.800 276.180,185.340 276.000,186.000 276.000 C 186.660 276.000,187.200 275.841,187.200 275.647 C 187.200 275.453,188.550 275.167,190.200 275.013 C 191.850 274.858,193.200 274.567,193.200 274.366 C 193.200 274.165,193.740 274.000,194.400 274.000 C 195.060 274.000,195.600 273.820,195.600 273.600 C 195.600 273.380,196.320 273.200,197.200 273.200 C 198.080 273.200,198.800 273.020,198.800 272.800 C 198.800 272.580,199.340 272.400,200.000 272.400 C 200.660 272.400,201.200 272.220,201.200 272.000 C 201.200 271.780,201.920 271.600,202.800 271.600 C 203.680 271.600,204.400 271.420,204.400 271.200 C 204.400 270.980,204.940 270.800,205.600 270.800 C 206.260 270.800,206.800 270.620,206.800 270.400 C 206.800 270.180,207.148 270.000,207.573 270.000 C 207.998 270.000,208.460 269.640,208.600 269.200 C 208.740 268.760,209.114 268.400,209.431 268.400 C 209.936 268.400,214.355 264.241,222.396 256.200 C 235.029 243.565,239.280 239.313,247.600 230.994 C 259.117 219.478,269.580 209.015,281.097 197.497 C 288.781 189.812,289.812 188.781,297.497 181.097 C 309.013 169.583,319.627 158.969,331.046 147.549 C 338.670 139.923,339.795 138.798,347.548 131.046 C 355.553 123.042,363.757 114.839,372.498 106.098 C 373.818 104.778,377.667 100.886,381.052 97.449 C 384.437 94.012,387.385 91.200,387.603 91.200 C 387.821 91.200,388.000 90.925,388.000 90.589 C 388.000 90.254,388.810 89.169,389.800 88.179 C 390.790 87.189,391.600 86.063,391.600 85.678 C 391.600 85.292,391.960 84.717,392.400 84.400 C 392.840 84.083,393.200 83.543,393.200 83.200 C 393.200 82.857,393.560 82.317,394.000 82.000 C 394.440 81.683,394.800 81.103,394.800 80.712 C 394.800 80.320,394.980 80.000,395.200 80.000 C 395.420 80.000,395.600 79.640,395.600 79.200 C 395.600 78.760,395.780 78.400,396.000 78.400 C 396.220 78.400,396.400 78.040,396.400 77.600 C 396.400 77.160,396.580 76.800,396.800 76.800 C 397.020 76.800,397.200 76.440,397.200 76.000 C 397.200 75.560,397.380 75.200,397.600 75.200 C 397.820 75.200,398.000 74.750,398.000 74.200 C 398.000 73.650,398.180 73.200,398.400 73.200 C 398.620 73.200,398.800 72.675,398.800 72.033 C 398.800 71.392,399.025 70.792,399.300 70.700 C 399.686 70.572,399.800 67.711,399.800 58.200 C 399.800 48.689,399.686 45.829,399.300 45.700 C 399.025 45.608,398.800 45.008,398.800 44.367 C 398.800 43.725,398.620 43.200,398.400 43.200 C 398.180 43.200,398.000 42.750,398.000 42.200 C 398.000 41.650,397.820 41.200,397.600 41.200 C 397.380 41.200,397.200 40.840,397.200 40.400 C 397.200 39.960,397.020 39.600,396.800 39.600 C 396.580 39.600,396.400 39.060,396.400 38.400 C 396.400 37.740,396.220 37.200,396.000 37.200 C 395.780 37.200,395.600 36.880,395.600 36.488 C 395.600 36.097,395.240 35.517,394.800 35.200 C 394.360 34.883,394.000 34.343,394.000 34.000 C 394.000 33.657,393.640 33.117,393.200 32.800 C 392.760 32.483,392.400 31.980,392.400 31.683 C 392.400 31.386,392.130 30.873,391.800 30.543 C 391.470 30.213,391.194 29.641,391.187 29.271 C 391.180 28.902,390.257 27.790,389.135 26.800 C 386.226 24.231,375.189 13.212,374.000 11.688 C 373.450 10.984,372.751 10.406,372.447 10.404 C 372.143 10.402,371.603 10.069,371.247 9.664 C 370.891 9.259,370.105 8.806,369.500 8.656 C 368.895 8.507,368.400 8.208,368.400 7.992 C 368.400 7.777,368.080 7.600,367.688 7.600 C 367.297 7.600,366.717 7.240,366.400 6.800 C 366.083 6.360,365.503 6.000,365.112 6.000 C 364.720 6.000,364.400 5.820,364.400 5.600 C 364.400 5.380,363.860 5.200,363.200 5.200 C 362.540 5.200,362.000 5.020,362.000 4.800 C 362.000 4.580,361.640 4.400,361.200 4.400 C 360.760 4.400,360.400 4.220,360.400 4.000 C 360.400 3.780,359.950 3.600,359.400 3.600 C 358.850 3.600,358.400 3.420,358.400 3.200 C 358.400 2.980,357.860 2.800,357.200 2.800 C 356.540 2.800,356.000 2.620,356.000 2.400 C 356.000 2.180,355.280 2.000,354.400 2.000 C 353.520 2.000,352.800 1.820,352.800 1.600 C 352.800 1.360,351.200 1.200,348.800 1.200 C 346.400 1.200,344.800 1.040,344.800 0.800 C 344.800 0.580,344.181 0.400,343.424 0.400 C 342.667 0.400,341.936 0.580,341.800 0.800 M347.200 22.800 C 347.200 23.020,347.920 23.200,348.800 23.200 C 349.680 23.200,350.400 23.380,350.400 23.600 C 350.400 23.820,350.940 24.000,351.600 24.000 C 352.260 24.000,352.800 24.160,352.800 24.355 C 352.800 24.551,353.461 24.835,354.268 24.986 C 355.119 25.146,356.197 25.754,356.829 26.431 C 357.430 27.074,358.030 27.600,358.163 27.600 C 358.297 27.600,361.525 30.705,365.339 34.500 C 369.152 38.295,372.660 41.665,373.136 41.988 C 373.611 42.312,374.000 42.814,374.000 43.105 C 374.000 43.601,374.277 44.021,375.500 45.385 C 375.775 45.692,376.000 46.226,376.000 46.571 C 376.000 46.917,376.180 47.200,376.400 47.200 C 376.620 47.200,376.800 47.560,376.800 48.000 C 376.800 48.440,376.980 48.800,377.200 48.800 C 377.420 48.800,377.600 49.340,377.600 50.000 C 377.600 50.660,377.780 51.200,378.000 51.200 C 378.220 51.200,378.400 51.920,378.400 52.800 C 378.400 53.680,378.580 54.400,378.800 54.400 C 379.035 54.400,379.200 55.800,379.200 57.800 C 379.200 59.800,379.035 61.200,378.800 61.200 C 378.580 61.200,378.400 61.920,378.400 62.800 C 378.400 63.680,378.220 64.400,378.000 64.400 C 377.780 64.400,377.600 64.940,377.600 65.600 C 377.600 66.260,377.420 66.800,377.200 66.800 C 376.980 66.800,376.800 67.160,376.800 67.600 C 376.800 68.040,376.620 68.400,376.400 68.400 C 376.180 68.400,376.000 68.760,376.000 69.200 C 376.000 69.640,375.820 70.000,375.600 70.000 C 375.380 70.000,375.200 70.354,375.200 70.787 C 375.200 71.219,374.570 72.203,373.800 72.973 C 373.030 73.743,372.400 74.471,372.400 74.591 C 372.400 74.710,370.144 77.063,367.387 79.820 L 362.375 84.833 360.487 82.794 C 359.449 81.673,357.283 79.460,355.674 77.877 C 354.065 76.295,350.172 72.413,347.023 69.251 C 343.874 66.089,340.218 62.422,338.898 61.102 C 337.578 59.782,333.911 56.115,330.749 52.954 C 327.587 49.792,323.901 46.079,322.557 44.703 C 321.214 43.326,319.354 41.538,318.425 40.728 L 316.735 39.256 320.867 35.091 C 323.140 32.801,325.265 30.538,325.588 30.063 C 325.912 29.588,326.421 29.200,326.720 29.200 C 327.018 29.200,327.954 28.480,328.800 27.600 C 329.646 26.720,330.621 26.000,330.969 26.000 C 331.316 26.000,331.600 25.836,331.600 25.635 C 331.600 25.434,332.320 25.149,333.200 25.000 C 334.080 24.851,334.800 24.566,334.800 24.365 C 334.800 24.164,335.340 24.000,336.000 24.000 C 336.660 24.000,337.200 23.820,337.200 23.600 C 337.200 23.380,337.740 23.200,338.400 23.200 C 339.060 23.200,339.600 23.020,339.600 22.800 C 339.600 22.561,341.133 22.400,343.400 22.400 C 345.667 22.400,347.200 22.561,347.200 22.800 M43.200 40.000 C 43.200 40.220,42.210 40.400,41.000 40.400 C 39.790 40.400,38.800 40.554,38.800 40.743 C 38.800 40.932,37.683 41.203,36.318 41.346 C 34.952 41.488,33.656 41.784,33.438 42.002 C 33.219 42.221,32.536 42.400,31.920 42.400 C 31.304 42.400,30.800 42.580,30.800 42.800 C 30.800 43.020,30.440 43.200,30.000 43.200 C 29.560 43.200,29.200 43.380,29.200 43.600 C 29.200 43.820,28.840 44.000,28.400 44.000 C 27.960 44.000,27.600 44.180,27.600 44.400 C 27.600 44.620,27.240 44.800,26.800 44.800 C 26.360 44.800,26.000 44.980,26.000 45.200 C 26.000 45.420,25.730 45.600,25.400 45.600 C 25.070 45.600,24.800 45.780,24.800 46.000 C 24.800 46.220,24.480 46.400,24.088 46.400 C 23.697 46.400,23.117 46.760,22.800 47.200 C 22.483 47.640,21.943 48.000,21.600 48.000 C 21.257 48.000,20.717 48.360,20.400 48.800 C 20.083 49.240,19.591 49.600,19.307 49.600 C 18.764 49.600,9.600 58.568,9.600 59.100 C 9.600 59.269,9.150 59.893,8.600 60.487 C 8.050 61.080,7.600 61.803,7.600 62.094 C 7.600 62.385,7.240 62.883,6.800 63.200 C 6.360 63.517,6.000 64.097,6.000 64.488 C 6.000 64.880,5.820 65.200,5.600 65.200 C 5.380 65.200,5.200 65.560,5.200 66.000 C 5.200 66.440,5.020 66.800,4.800 66.800 C 4.580 66.800,4.400 67.160,4.400 67.600 C 4.400 68.040,4.220 68.400,4.000 68.400 C 3.780 68.400,3.600 68.760,3.600 69.200 C 3.600 69.640,3.420 70.000,3.200 70.000 C 2.980 70.000,2.800 70.540,2.800 71.200 C 2.800 71.860,2.620 72.400,2.400 72.400 C 2.180 72.400,2.000 72.940,2.000 73.600 C 2.000 74.260,1.820 74.800,1.600 74.800 C 1.380 74.800,1.200 75.235,1.200 75.767 C 1.200 76.298,0.975 76.808,0.700 76.900 C -0.036 77.145,-0.036 361.655,0.700 361.900 C 0.987 361.996,1.200 362.736,1.200 363.633 C 1.200 364.495,1.380 365.200,1.600 365.200 C 1.820 365.200,2.000 365.740,2.000 366.400 C 2.000 367.060,2.180 367.600,2.400 367.600 C 2.620 367.600,2.800 368.140,2.800 368.800 C 2.800 369.460,2.980 370.000,3.200 370.000 C 3.420 370.000,3.600 370.360,3.600 370.800 C 3.600 371.240,3.780 371.600,4.000 371.600 C 4.220 371.600,4.400 371.960,4.400 372.400 C 4.400 372.840,4.580 373.200,4.800 373.200 C 5.020 373.200,5.200 373.548,5.200 373.973 C 5.200 374.398,5.560 374.860,6.000 375.000 C 6.440 375.140,6.800 375.602,6.800 376.027 C 6.800 376.452,6.980 376.800,7.200 376.800 C 7.420 376.800,7.600 377.083,7.600 377.429 C 7.600 377.774,7.825 378.308,8.100 378.615 C 9.289 379.940,9.600 380.391,9.600 380.787 C 9.600 381.450,18.721 390.400,19.396 390.400 C 19.728 390.400,20.000 390.577,20.000 390.792 C 20.000 391.008,20.495 391.307,21.100 391.456 C 21.705 391.606,22.491 392.059,22.847 392.464 C 23.203 392.869,23.788 393.200,24.147 393.200 C 24.506 393.200,24.800 393.380,24.800 393.600 C 24.800 393.820,25.070 394.000,25.400 394.000 C 25.730 394.000,26.000 394.180,26.000 394.400 C 26.000 394.620,26.360 394.800,26.800 394.800 C 27.240 394.800,27.600 394.980,27.600 395.200 C 27.600 395.420,27.960 395.600,28.400 395.600 C 28.840 395.600,29.200 395.780,29.200 396.000 C 29.200 396.220,29.560 396.400,30.000 396.400 C 30.440 396.400,30.800 396.580,30.800 396.800 C 30.800 397.020,31.340 397.200,32.000 397.200 C 32.660 397.200,33.200 397.380,33.200 397.600 C 33.200 397.820,33.740 398.000,34.400 398.000 C 35.060 398.000,35.600 398.180,35.600 398.400 C 35.600 398.620,36.305 398.800,37.167 398.800 C 38.064 398.800,38.804 399.013,38.900 399.300 C 39.145 400.036,340.055 400.036,340.300 399.300 C 340.392 399.025,341.082 398.800,341.833 398.800 C 342.585 398.800,343.200 398.620,343.200 398.400 C 343.200 398.180,343.740 398.000,344.400 398.000 C 345.060 398.000,345.600 397.820,345.600 397.600 C 345.600 397.380,346.140 397.200,346.800 397.200 C 347.460 397.200,348.000 397.020,348.000 396.800 C 348.000 396.580,348.360 396.400,348.800 396.400 C 349.240 396.400,349.600 396.220,349.600 396.000 C 349.600 395.780,350.140 395.600,350.800 395.600 C 351.460 395.600,352.000 395.420,352.000 395.200 C 352.000 394.980,352.320 394.800,352.712 394.800 C 353.103 394.800,353.683 394.440,354.000 394.000 C 354.317 393.560,354.897 393.200,355.288 393.200 C 355.680 393.200,356.000 393.020,356.000 392.800 C 356.000 392.580,356.360 392.400,356.800 392.400 C 357.240 392.400,357.600 392.232,357.600 392.027 C 357.600 391.822,357.994 391.529,358.476 391.376 C 358.957 391.223,360.205 390.221,361.250 389.149 C 362.294 388.077,363.346 387.200,363.587 387.200 C 364.159 387.200,366.800 384.559,366.800 383.987 C 366.800 383.746,367.700 382.671,368.800 381.600 C 369.900 380.529,370.800 379.410,370.800 379.114 C 370.800 378.819,371.160 378.317,371.600 378.000 C 372.040 377.683,372.400 377.103,372.400 376.712 C 372.400 376.320,372.580 376.000,372.800 376.000 C 373.020 376.000,373.200 375.758,373.200 375.462 C 373.200 375.166,373.541 374.615,373.958 374.238 C 374.375 373.860,374.836 372.753,374.983 371.776 C 375.129 370.799,375.418 370.000,375.625 370.000 C 375.831 370.000,376.000 369.640,376.000 369.200 C 376.000 368.760,376.180 368.400,376.400 368.400 C 376.620 368.400,376.800 367.860,376.800 367.200 C 376.800 366.540,376.980 366.000,377.200 366.000 C 377.420 366.000,377.600 365.460,377.600 364.800 C 377.600 364.140,377.780 363.600,378.000 363.600 C 378.220 363.600,378.400 362.880,378.400 362.000 C 378.400 361.120,378.580 360.400,378.800 360.400 C 379.026 360.400,379.200 359.267,379.200 357.800 C 379.200 356.333,379.374 355.200,379.600 355.200 C 379.864 355.200,380.000 338.800,380.000 306.800 C 380.000 274.800,379.864 258.400,379.600 258.400 C 379.380 258.400,379.200 258.040,379.200 257.600 C 379.200 257.160,379.020 256.800,378.800 256.800 C 378.580 256.800,378.400 256.525,378.400 256.189 C 378.400 255.511,375.057 252.000,374.411 252.000 C 374.185 252.000,374.000 251.820,374.000 251.600 C 374.000 251.380,373.640 251.200,373.200 251.200 C 372.760 251.200,372.400 251.020,372.400 250.800 C 372.400 250.567,371.067 250.400,369.200 250.400 C 367.333 250.400,366.000 250.567,366.000 250.800 C 366.000 251.020,365.640 251.200,365.200 251.200 C 364.760 251.200,364.400 251.380,364.400 251.600 C 364.400 251.820,364.125 252.000,363.789 252.000 C 363.014 252.000,359.600 255.387,359.600 256.156 C 359.600 256.474,359.375 256.808,359.100 256.900 C 358.704 257.032,358.578 267.312,358.492 306.133 C 358.423 337.861,358.246 355.200,357.992 355.200 C 357.777 355.200,357.600 355.740,357.600 356.400 C 357.600 357.060,357.420 357.600,357.200 357.600 C 356.980 357.600,356.800 358.050,356.800 358.600 C 356.800 359.150,356.620 359.600,356.400 359.600 C 356.180 359.600,356.000 360.100,356.000 360.712 C 356.000 361.365,355.670 362.061,355.200 362.400 C 354.760 362.717,354.400 363.297,354.400 363.688 C 354.400 364.080,354.220 364.400,354.000 364.400 C 353.780 364.400,353.600 364.688,353.600 365.040 C 353.600 365.391,353.060 366.183,352.400 366.800 C 351.740 367.417,351.200 368.125,351.200 368.374 C 351.200 368.963,348.563 371.600,347.974 371.600 C 347.725 371.600,347.017 372.140,346.400 372.800 C 345.783 373.460,344.991 374.000,344.640 374.000 C 344.288 374.000,344.000 374.180,344.000 374.400 C 344.000 374.620,343.662 374.800,343.249 374.800 C 342.836 374.800,342.274 375.070,342.000 375.400 C 341.726 375.730,341.254 376.000,340.951 376.000 C 340.648 376.000,340.400 376.180,340.400 376.400 C 340.400 376.620,339.680 376.800,338.800 376.800 C 337.920 376.800,337.200 376.980,337.200 377.200 C 337.200 377.420,336.660 377.600,336.000 377.600 C 335.340 377.600,334.800 377.780,334.800 378.000 C 334.800 378.266,286.067 378.400,189.400 378.400 C 92.733 378.400,44.000 378.266,44.000 378.000 C 44.000 377.780,43.460 377.600,42.800 377.600 C 42.140 377.600,41.600 377.420,41.600 377.200 C 41.600 376.980,41.150 376.800,40.600 376.800 C 40.050 376.800,39.600 376.620,39.600 376.400 C 39.600 376.180,39.351 376.000,39.046 376.000 C 38.741 376.000,37.976 375.731,37.346 375.402 C 36.716 375.074,35.885 374.804,35.500 374.802 C 35.115 374.801,34.800 374.620,34.800 374.400 C 34.800 374.180,34.528 374.000,34.195 374.000 C 33.013 374.000,25.272 365.793,24.979 364.228 C 24.832 363.443,24.551 362.800,24.355 362.800 C 24.160 362.800,24.000 362.440,24.000 362.000 C 24.000 361.560,23.820 361.200,23.600 361.200 C 23.380 361.200,23.200 360.761,23.200 360.224 C 23.200 359.687,23.020 359.136,22.800 359.000 C 22.580 358.864,22.400 358.313,22.400 357.776 C 22.400 357.239,22.220 356.800,22.000 356.800 C 21.780 356.800,21.600 355.900,21.600 354.800 C 21.600 353.700,21.420 352.800,21.200 352.800 C 20.934 352.800,20.800 308.267,20.800 220.000 C 20.800 131.733,20.934 87.200,21.200 87.200 C 21.420 87.200,21.600 86.300,21.600 85.200 C 21.600 84.100,21.780 83.200,22.000 83.200 C 22.220 83.200,22.400 82.480,22.400 81.600 C 22.400 80.720,22.580 80.000,22.800 80.000 C 23.020 80.000,23.200 79.640,23.200 79.200 C 23.200 78.760,23.380 78.400,23.600 78.400 C 23.820 78.400,24.000 78.040,24.000 77.600 C 24.000 77.160,24.158 76.800,24.350 76.800 C 24.543 76.800,24.810 76.251,24.944 75.580 C 25.090 74.848,25.992 73.577,27.194 72.406 C 28.297 71.331,29.200 70.170,29.200 69.826 C 29.200 69.482,29.484 69.200,29.831 69.200 C 30.179 69.200,31.154 68.480,32.000 67.600 C 32.846 66.720,33.821 66.000,34.169 66.000 C 34.516 66.000,34.800 65.820,34.800 65.600 C 34.800 65.380,35.160 65.200,35.600 65.200 C 36.040 65.200,36.400 65.020,36.400 64.800 C 36.400 64.580,36.760 64.400,37.200 64.400 C 37.640 64.400,38.000 64.220,38.000 64.000 C 38.000 63.780,38.360 63.600,38.800 63.600 C 39.240 63.600,39.600 63.420,39.600 63.200 C 39.600 62.980,40.050 62.800,40.600 62.800 C 41.150 62.800,41.600 62.620,41.600 62.400 C 41.600 62.180,42.140 62.000,42.800 62.000 C 43.460 62.000,44.000 61.820,44.000 61.600 C 44.000 61.336,60.200 61.200,91.800 61.200 C 123.400 61.200,139.600 61.064,139.600 60.800 C 139.600 60.580,140.230 60.400,141.000 60.400 C 141.770 60.400,142.400 60.220,142.400 60.000 C 142.400 59.780,142.683 59.600,143.029 59.600 C 143.374 59.600,143.927 59.330,144.257 59.000 C 144.587 58.670,145.204 58.400,145.629 58.400 C 146.101 58.400,146.400 58.125,146.400 57.688 C 146.400 57.297,146.760 56.717,147.200 56.400 C 147.640 56.083,148.000 55.503,148.000 55.112 C 148.000 54.720,148.180 54.400,148.400 54.400 C 148.640 54.400,148.800 52.800,148.800 50.400 C 148.800 48.000,148.640 46.400,148.400 46.400 C 148.180 46.400,148.000 46.040,148.000 45.600 C 148.000 45.160,147.820 44.800,147.600 44.800 C 147.380 44.800,147.200 44.506,147.200 44.147 C 147.200 43.339,145.766 42.036,144.300 41.514 C 143.695 41.298,143.200 40.959,143.200 40.761 C 143.200 40.562,142.750 40.400,142.200 40.400 C 141.650 40.400,141.200 40.220,141.200 40.000 C 141.200 39.736,124.600 39.600,92.200 39.600 C 59.800 39.600,43.200 39.736,43.200 40.000 M303.411 56.900 C 304.397 57.835,305.968 59.367,306.902 60.305 C 307.836 61.243,311.547 64.956,315.148 68.557 C 323.207 76.616,323.384 76.793,331.443 84.852 C 335.044 88.453,338.757 92.153,339.695 93.073 C 342.994 96.311,346.400 100.032,346.400 100.400 C 346.400 100.752,342.942 104.548,340.093 107.326 C 339.373 108.027,335.660 111.726,331.839 115.547 C 328.019 119.368,324.354 123.034,323.694 123.694 C 323.034 124.354,319.344 128.044,315.494 131.894 C 311.644 135.744,307.932 139.458,307.246 140.147 C 305.623 141.776,291.560 155.840,289.993 157.400 C 289.330 158.060,285.661 161.726,281.841 165.547 C 278.020 169.368,274.354 173.034,273.694 173.694 C 273.034 174.354,269.344 178.044,265.494 181.894 C 261.644 185.744,257.955 189.435,257.296 190.096 C 255.739 191.660,241.660 205.739,240.096 207.296 C 239.435 207.955,235.744 211.644,231.894 215.494 C 228.044 219.344,224.354 223.034,223.694 223.694 C 223.034 224.354,219.368 228.019,215.547 231.839 C 211.726 235.660,208.036 239.373,207.348 240.093 C 202.540 245.112,203.350 245.302,195.449 237.300 C 193.222 235.044,189.555 231.354,187.300 229.100 C 185.044 226.845,181.354 223.155,179.100 220.900 C 168.885 210.684,166.544 208.346,162.700 204.526 C 156.278 198.146,156.415 199.313,161.502 194.274 C 163.098 192.694,166.811 188.993,169.753 186.051 C 172.695 183.109,176.362 179.442,177.902 177.902 C 179.442 176.362,183.132 172.672,186.102 169.702 C 189.072 166.732,192.762 163.042,194.302 161.502 C 197.909 157.894,207.894 147.909,211.502 144.302 C 213.042 142.762,216.732 139.072,219.702 136.102 C 222.672 133.132,226.362 129.442,227.902 127.902 C 229.442 126.362,233.132 122.672,236.102 119.702 C 239.072 116.732,242.762 113.042,244.302 111.502 C 247.909 107.894,257.894 97.909,261.502 94.302 C 263.042 92.762,266.732 89.072,269.702 86.102 C 272.672 83.132,276.362 79.442,277.902 77.902 C 279.442 76.362,283.109 72.695,286.051 69.753 C 288.993 66.811,292.704 63.098,294.297 61.502 C 301.656 54.131,300.896 54.515,303.411 56.900 M149.408 222.500 C 150.836 223.875,153.488 226.486,155.302 228.301 C 159.019 232.022,166.749 239.752,171.699 244.699 C 181.944 254.939,182.160 255.200,180.400 255.200 C 179.740 255.200,179.200 255.380,179.200 255.600 C 179.200 255.820,178.480 256.000,177.600 256.000 C 176.720 256.000,176.000 256.180,176.000 256.400 C 176.000 256.620,175.550 256.800,175.000 256.800 C 174.450 256.800,174.000 256.980,174.000 257.200 C 174.000 257.420,173.280 257.600,172.400 257.600 C 171.520 257.600,170.800 257.757,170.800 257.948 C 170.800 258.140,169.540 258.421,168.000 258.573 C 166.460 258.724,165.200 259.018,165.200 259.224 C 165.200 259.431,164.480 259.600,163.600 259.600 C 162.720 259.600,162.000 259.780,162.000 260.000 C 162.000 260.220,161.460 260.400,160.800 260.400 C 160.140 260.400,159.600 260.580,159.600 260.800 C 159.600 261.020,158.970 261.200,158.200 261.200 C 157.430 261.200,156.800 261.380,156.800 261.600 C 156.800 261.820,156.080 262.000,155.200 262.000 C 154.320 262.000,153.600 262.180,153.600 262.400 C 153.600 262.620,153.060 262.800,152.400 262.800 C 151.740 262.800,151.200 262.980,151.200 263.200 C 151.200 263.420,150.480 263.600,149.600 263.600 C 148.720 263.600,148.000 263.780,148.000 264.000 C 148.000 264.220,147.460 264.400,146.800 264.400 C 146.140 264.400,145.600 264.580,145.600 264.800 C 145.600 265.020,144.880 265.200,144.000 265.200 C 143.120 265.200,142.400 265.380,142.400 265.600 C 142.400 265.820,141.770 266.000,141.000 266.000 C 140.230 266.000,139.600 266.180,139.600 266.400 C 139.600 266.620,139.060 266.800,138.400 266.800 C 137.740 266.800,137.200 266.980,137.200 267.200 C 137.200 267.420,136.495 267.600,135.633 267.600 C 134.742 267.600,133.990 267.816,133.888 268.100 C 133.784 268.391,133.561 268.452,133.355 268.245 C 133.148 268.039,133.209 267.816,133.500 267.712 C 133.784 267.610,134.000 266.858,134.000 265.967 C 134.000 265.105,134.180 264.400,134.400 264.400 C 134.620 264.400,134.800 263.860,134.800 263.200 C 134.800 262.540,134.980 262.000,135.200 262.000 C 135.420 262.000,135.600 261.280,135.600 260.400 C 135.600 259.520,135.780 258.800,136.000 258.800 C 136.220 258.800,136.400 258.170,136.400 257.400 C 136.400 256.630,136.580 256.000,136.800 256.000 C 137.020 256.000,137.200 255.460,137.200 254.800 C 137.200 254.140,137.380 253.600,137.600 253.600 C 137.820 253.600,138.000 252.880,138.000 252.000 C 138.000 251.120,138.180 250.400,138.400 250.400 C 138.620 250.400,138.800 249.860,138.800 249.200 C 138.800 248.540,138.980 248.000,139.200 248.000 C 139.420 248.000,139.600 247.280,139.600 246.400 C 139.600 245.520,139.780 244.800,140.000 244.800 C 140.220 244.800,140.400 244.095,140.400 243.233 C 140.400 242.372,140.578 241.607,140.796 241.533 C 141.014 241.460,141.310 240.275,141.453 238.900 C 141.597 237.525,141.868 236.400,142.057 236.400 C 142.246 236.400,142.400 235.680,142.400 234.800 C 142.400 233.920,142.580 233.200,142.800 233.200 C 143.020 233.200,143.200 232.660,143.200 232.000 C 143.200 231.340,143.380 230.800,143.600 230.800 C 143.820 230.800,144.000 230.080,144.000 229.200 C 144.000 228.320,144.180 227.600,144.400 227.600 C 144.620 227.600,144.800 227.060,144.800 226.400 C 144.800 225.740,144.980 225.200,145.200 225.200 C 145.420 225.200,145.600 224.570,145.600 223.800 C 145.600 223.030,145.780 222.400,146.000 222.400 C 146.220 222.400,146.400 221.860,146.400 221.200 C 146.400 219.609,146.414 219.615,149.408 222.500 " stroke="none" fill="#04fcfc" fill-rule="evenodd"></path><path id="path1" d="" stroke="none" fill="#08fcfc" fill-rule="evenodd"></path><path id="path2" d="" stroke="none" fill="#08fcfc" fill-rule="evenodd"></path><path id="path3" d="" stroke="none" fill="#08fcfc" fill-rule="evenodd"></path><path id="path4" d="" stroke="none" fill="#08fcfc" fill-rule="evenodd"></path></g></svg>