<svg id="svg" xmlns="http://www.w3.org/2000/svg" xmlns:xlink="http://www.w3.org/1999/xlink" width="400" height="400" viewBox="0, 0, 400,400"><g id="svgg"><path id="path0" d="M337.891 1.585 C 330.248 2.395,322.379 5.561,316.016 10.386 C 311.561 13.764,134.607 190.526,132.813 193.390 C 130.994 196.295,107.764 279.745,107.687 283.653 C 107.571 289.530,112.027 293.987,117.909 293.879 C 121.748 293.809,205.291 270.531,208.203 268.721 C 213.024 265.724,389.554 88.117,392.870 82.926 C 406.310 61.894,402.211 40.542,380.688 19.468 C 365.215 4.319,354.467 -0.172,337.891 1.585 M353.483 24.124 C 358.764 26.460,375.036 42.699,377.501 48.092 C 382.080 58.115,379.317 68.043,368.921 78.924 L 362.593 85.547 339.322 62.320 L 316.050 39.094 319.549 35.498 C 332.265 22.427,342.154 19.112,353.483 24.124 M39.063 41.059 C 21.332 44.867,5.682 60.007,1.184 77.703 C -0.968 86.169,-0.564 355.410,1.613 363.297 C 6.091 379.525,19.524 393.020,36.328 398.172 C 40.810 399.546,47.558 399.609,189.844 399.609 L 338.672 399.609 344.914 397.403 C 363.199 390.942,375.877 376.146,378.855 357.792 C 380.561 347.279,379.931 259.394,378.129 256.438 C 374.824 251.017,368.772 249.355,363.983 252.555 C 358.405 256.281,358.596 254.349,358.595 306.963 C 358.594 363.779,358.362 365.007,346.048 373.567 C 337.740 379.343,350.060 378.941,188.140 378.717 L 42.578 378.516 37.725 376.274 C 31.358 373.333,25.133 366.864,22.589 360.544 L 20.703 355.859 20.471 222.656 C 20.302 125.339,20.479 88.197,21.130 84.792 C 22.939 75.318,28.640 67.994,37.500 63.757 L 42.578 61.328 91.797 60.938 C 138.249 60.569,141.152 60.464,143.449 59.074 C 150.400 54.865,149.998 44.589,142.748 41.148 C 138.966 39.354,47.370 39.274,39.063 41.059 M275.200 172.847 L 202.741 245.309 179.494 222.072 L 156.247 198.835 228.706 126.372 L 301.165 53.909 324.413 77.147 L 347.660 100.384 275.200 172.847 M182.031 254.736 C 182.031 255.198,133.439 268.856,133.079 268.496 C 132.970 268.386,135.941 257.157,139.682 243.541 L 146.484 218.785 164.258 236.535 C 174.033 246.297,182.031 254.488,182.031 254.736 " stroke="none" fill="#000000" fill-rule="evenodd"></path></g></svg>