<svg xmlns="http://www.w3.org/2000/svg" height="48" viewBox="0 -960 960 960" width="48"><path d="M480-322.587q16.419 0 28.492-12.068t12.073-28.48q0-15.436-12.073-28.009T480-403.717q-16.419 0-28.492 12.556t-12.073 28.492q0 15.936 12.073 28.009T480-322.587Zm-29.848-126.37h56.891q0-12.265.56-22.795.56-10.531 5.524-18.836 3.307-6.249 10.412-13.831Q530.643-512 549-527.761q22.043-20.522 32.283-40.56 10.239-20.038 10.239-47.038 0-45.424-30.382-72.978-30.381-27.554-79.184-27.554-39.439 0-71.621 22.831-32.183 22.831-44.183 58.69l51.609 21.131q7.522-20.283 25.076-34.022Q460.391-661 483.097-661q24.099 0 37.577 13.337 13.478 13.337 13.478 34.447 0 15.682-8.037 28.154-8.037 12.473-26.208 29.587-18.467 16.963-28.052 27.864t-12.942 20.351q-5.239 9.934-7 23.597-1.761 13.663-1.761 34.706ZM480-170.87q128.906-117.132 190.377-212.241 61.471-95.108 61.471-168.909 0-114.346-72.926-187.087-72.927-72.741-178.906-72.741t-178.422 72.753q-72.442 72.753-72.442 186.854 0 73.763 62.46 168.681Q354.072-288.643 480-170.87Zm0 101.74Q315.049-209.11 233.449-329.438q-81.601-120.328-81.601-222.593 0-154.172 98.878-245.646 98.879-91.475 229.009-91.475t229.774 91.496q99.643 91.497 99.643 245.705 0 102.213-82.101 222.532Q644.951-209.1 480-69.13ZM480-552Z"/></svg>