<?xml version="1.0" encoding="utf-8"?>
<svg viewBox="-216.756 -1060.157 1559.441 1276.913" xmlns="http://www.w3.org/2000/svg">
  <path d="M 144.127 -590.311 C 129.341 -605.057 121.948 -622.812 121.948 -643.574 C 121.948 -664.338 129.322 -682.305 144.068 -697.477 C 158.814 -712.649 176.569 -720.235 197.331 -720.235 C 218.095 -720.235 236.062 -712.669 251.234 -697.536 C 266.406 -682.403 273.992 -664.455 273.992 -643.692 C 273.992 -622.93 266.426 -605.156 251.293 -590.37 C 236.16 -575.584 218.212 -568.191 197.449 -568.191 C 176.687 -568.191 158.913 -575.565 144.127 -590.311 Z M 197.47 -254.583 C 243.893 -296.765 283.756 -336.805 317.06 -374.703 C 316.582 -354.469 320.479 -325.348 323.591 -310.274 C 326.28 -297.244 330.285 -286.628 334.846 -280.721 C 295.219 -239.557 249.427 -196.931 197.47 -152.843 C 87.503 -246.163 5.319 -332.933 -49.081 -413.151 C -103.481 -493.37 -130.682 -567.568 -130.682 -635.744 C -130.682 -738.526 -97.722 -820.408 -31.804 -881.39 C 34.116 -942.374 110.452 -972.865 197.205 -972.865 C 283.959 -972.865 360.55 -942.367 426.979 -881.369 C 492.81 -820.92 526.021 -739.944 526.614 -638.437 C 517.833 -638.918 508.042 -638.427 499.686 -636.157 C 483.961 -631.884 466.936 -624.125 452.807 -609.368 C 450.698 -607.166 448.495 -604.56 446.242 -601.648 C 448.293 -613.365 449.318 -624.727 449.318 -635.733 C 449.318 -711.964 425.01 -774.326 376.392 -822.82 C 327.774 -871.314 268.139 -895.561 197.486 -895.561 C 126.834 -895.561 67.36 -871.31 19.064 -822.808 C -29.23 -774.306 -53.378 -712.022 -53.378 -635.954 C -53.378 -586.779 -32.558 -530.552 9.082 -467.273 C 50.722 -403.995 113.518 -333.099 197.47 -254.583 Z M 456.454 -431.299 C 456.597 -431.496 456.739 -431.687 456.88 -431.872 C 455.735 -430.073 454.576 -428.27 453.403 -426.465 C 454.538 -428.439 455.563 -430.075 456.454 -431.299 Z"/>
  <path d="M 842.474 -658.383 C 827.688 -673.129 820.295 -690.884 820.295 -711.646 C 820.295 -732.41 827.669 -750.377 842.415 -765.549 C 857.161 -780.721 874.916 -788.307 895.678 -788.307 C 916.442 -788.307 934.409 -780.741 949.581 -765.608 C 964.753 -750.475 972.339 -732.527 972.339 -711.764 C 972.339 -691.002 964.773 -673.228 949.64 -658.442 C 934.507 -643.656 916.559 -636.263 895.796 -636.263 C 875.034 -636.263 857.26 -643.637 842.474 -658.383 Z M 895.817 -322.655 C 981.755 -400.743 1045.214 -471.49 1086.194 -534.896 C 1127.175 -598.302 1147.665 -654.605 1147.665 -703.805 C 1147.665 -780.036 1123.357 -842.398 1074.739 -890.892 C 1026.121 -939.386 966.486 -963.633 895.833 -963.633 C 825.181 -963.633 765.707 -939.382 717.411 -890.88 C 669.117 -842.378 644.969 -780.094 644.969 -704.026 C 644.969 -679.882 649.988 -654.037 660.026 -626.493 C 650.622 -631.399 640.966 -635.676 632.43 -638.429 C 613.982 -644.378 586.886 -645.824 574.019 -645.338 C 569.783 -665.3 567.665 -684.792 567.665 -703.816 C 567.665 -806.598 600.625 -888.48 666.543 -949.462 C 732.463 -1010.446 808.799 -1040.937 895.552 -1040.937 C 982.306 -1040.937 1058.897 -1010.439 1125.326 -949.441 C 1191.755 -888.443 1224.969 -806.542 1224.969 -703.736 C 1224.969 -635.594 1197.602 -561.417 1142.868 -481.204 C 1088.135 -400.992 1005.785 -314.229 895.817 -220.915 C 867.658 -244.811 841.321 -268.278 816.806 -291.315 C 822.144 -290.049 825.143 -291.799 828.318 -293.532 C 831.674 -295.364 833.255 -296.675 835.852 -302.74 C 840.012 -312.456 847.31 -342.7 851.382 -365.463 C 865.469 -351.454 880.281 -337.185 895.817 -322.655 Z"/>
  <path d="M 569.167 -295.696 C 589.93 -295.696 607.878 -303.089 623.011 -317.875 C 638.144 -332.66 645.71 -350.434 645.71 -371.197 C 645.71 -391.96 638.124 -409.908 622.952 -425.041 C 607.78 -440.174 589.812 -447.74 569.049 -447.74 C 548.286 -447.74 530.532 -440.154 515.786 -424.982 C 501.039 -409.81 493.666 -391.842 493.666 -371.079 C 493.666 -350.316 501.059 -332.562 515.845 -317.816 C 530.63 -303.069 548.404 -295.696 569.167 -295.696 Z M 569.188 17.912 C 655.125 -60.176 718.584 -130.923 759.565 -194.329 C 800.546 -257.734 821.036 -314.037 821.036 -363.238 C 821.036 -439.469 796.727 -501.831 748.11 -550.325 C 699.492 -598.819 639.857 -623.066 569.204 -623.066 C 498.551 -623.066 439.077 -598.815 390.782 -550.313 C 342.487 -501.811 318.34 -439.526 318.34 -363.459 C 318.34 -314.284 339.16 -258.057 380.8 -194.778 C 422.44 -131.5 485.236 -60.603 569.188 17.912 Z M 569.188 119.652 C 459.221 26.332 377.037 -60.437 322.637 -140.656 C 268.236 -220.875 241.036 -295.072 241.036 -363.249 C 241.036 -466.03 273.995 -547.912 339.914 -608.895 C 405.833 -669.878 482.17 -700.37 568.923 -700.37 C 655.676 -700.37 732.268 -669.871 798.697 -608.874 C 865.126 -547.876 898.34 -465.974 898.34 -363.169 C 898.34 -295.027 870.973 -220.85 816.239 -140.637 C 761.506 -60.424 679.155 26.339 569.188 119.652 Z M 569.188 -363.218 Z" style="paint-order: fill; fill-rule: evenodd;"/>
</svg>