<svg id="svg" version="1.1" xmlns="http://www.w3.org/2000/svg" xmlns:xlink="http://www.w3.org/1999/xlink" width="400" height="400" viewBox="0, 0, 400,400"><g id="svgg"><path id="path0" d="M158.300 0.285 C 157.475 0.375,156.800 0.617,156.800 0.824 C 156.800 1.031,156.260 1.200,155.600 1.200 C 154.940 1.200,154.400 1.380,154.400 1.600 C 154.400 1.820,154.040 2.000,153.600 2.000 C 153.160 2.000,152.800 2.180,152.800 2.400 C 152.800 2.620,152.440 2.800,152.000 2.800 C 151.560 2.800,151.200 2.980,151.200 3.200 C 151.200 3.420,150.880 3.600,150.488 3.600 C 150.097 3.600,149.517 3.960,149.200 4.400 C 148.883 4.840,148.402 5.200,148.131 5.200 C 147.389 5.200,141.200 11.264,141.200 11.991 C 141.200 12.339,140.840 12.883,140.400 13.200 C 139.960 13.517,139.600 14.097,139.600 14.488 C 139.600 14.880,139.420 15.200,139.200 15.200 C 138.980 15.200,138.800 15.560,138.800 16.000 C 138.800 16.440,138.620 16.800,138.400 16.800 C 138.180 16.800,138.000 17.160,138.000 17.600 C 138.000 18.040,137.820 18.400,137.600 18.400 C 137.380 18.400,137.200 18.940,137.200 19.600 C 137.200 20.260,137.020 20.800,136.800 20.800 C 136.580 20.800,136.400 21.520,136.400 22.400 C 136.400 23.280,136.220 24.000,136.000 24.000 C 135.780 24.000,135.600 24.810,135.600 25.800 C 135.600 26.790,135.420 27.600,135.200 27.600 C 134.978 27.600,134.800 28.667,134.800 30.000 C 134.800 31.333,134.622 32.400,134.400 32.400 C 134.178 32.400,134.000 33.467,134.000 34.800 C 134.000 36.133,133.822 37.200,133.600 37.200 C 133.380 37.200,133.200 38.179,133.200 39.376 C 133.200 40.573,133.020 41.664,132.800 41.800 C 132.580 41.936,132.400 43.027,132.400 44.224 C 132.400 45.421,132.220 46.400,132.000 46.400 C 131.780 46.400,131.600 47.120,131.600 48.000 C 131.600 48.880,131.420 49.600,131.200 49.600 C 130.980 49.600,130.800 50.140,130.800 50.800 C 130.800 51.460,130.620 52.000,130.400 52.000 C 130.180 52.000,130.000 52.360,130.000 52.800 C 130.000 53.240,129.820 53.600,129.600 53.600 C 129.380 53.600,129.200 53.920,129.200 54.312 C 129.200 54.703,128.840 55.283,128.400 55.600 C 127.960 55.917,127.600 56.395,127.600 56.661 C 127.600 57.360,122.903 62.000,122.195 62.000 C 121.868 62.000,121.600 62.180,121.600 62.400 C 121.600 62.620,121.240 62.800,120.800 62.800 C 120.360 62.800,120.000 62.980,120.000 63.200 C 120.000 63.420,119.640 63.600,119.200 63.600 C 118.760 63.600,118.400 63.780,118.400 64.000 C 118.400 64.220,118.040 64.400,117.600 64.400 C 117.160 64.400,116.800 64.580,116.800 64.800 C 116.800 65.020,116.080 65.200,115.200 65.200 C 114.320 65.200,113.600 65.380,113.600 65.600 C 113.600 65.841,111.933 66.000,109.400 66.000 C 106.867 66.000,105.200 65.841,105.200 65.600 C 105.200 65.380,104.660 65.200,104.000 65.200 C 103.340 65.200,102.800 65.020,102.800 64.800 C 102.800 64.580,102.260 64.400,101.600 64.400 C 100.940 64.400,100.400 64.220,100.400 64.000 C 100.400 63.780,99.860 63.600,99.200 63.600 C 98.540 63.600,98.000 63.420,98.000 63.200 C 98.000 62.980,97.640 62.800,97.200 62.800 C 96.760 62.800,96.400 62.620,96.400 62.400 C 96.400 62.180,95.860 62.000,95.200 62.000 C 94.540 62.000,94.000 61.820,94.000 61.600 C 94.000 61.380,93.460 61.200,92.800 61.200 C 92.140 61.200,91.599 61.065,91.597 60.900 C 91.593 60.494,89.614 59.600,88.720 59.600 C 88.324 59.600,88.000 59.443,88.000 59.252 C 88.000 59.060,87.100 58.784,86.000 58.638 C 84.900 58.492,84.000 58.199,84.000 57.986 C 84.000 57.774,83.460 57.600,82.800 57.600 C 82.140 57.600,81.600 57.420,81.600 57.200 C 81.600 56.980,81.060 56.800,80.400 56.800 C 79.740 56.800,79.200 56.620,79.200 56.400 C 79.200 56.180,78.300 56.000,77.200 56.000 C 76.100 56.000,75.200 55.820,75.200 55.600 C 75.200 55.355,73.267 55.200,70.200 55.200 C 67.133 55.200,65.200 55.355,65.200 55.600 C 65.200 55.820,64.300 56.000,63.200 56.000 C 62.100 56.000,61.200 56.180,61.200 56.400 C 61.200 56.620,60.660 56.800,60.000 56.800 C 59.340 56.800,58.800 56.980,58.800 57.200 C 58.800 57.420,58.350 57.600,57.800 57.600 C 57.250 57.600,56.800 57.764,56.800 57.965 C 56.800 58.166,56.112 58.446,55.272 58.588 C 54.431 58.730,53.491 59.196,53.183 59.623 C 52.875 60.050,52.391 60.400,52.107 60.400 C 51.432 60.400,44.000 67.832,44.000 68.507 C 44.000 68.791,43.640 69.283,43.200 69.600 C 42.760 69.917,42.400 70.475,42.400 70.839 C 42.400 71.204,42.130 71.726,41.800 72.000 C 41.470 72.274,41.200 72.836,41.200 73.249 C 41.200 73.662,41.020 74.000,40.800 74.000 C 40.580 74.000,40.400 74.270,40.400 74.600 C 40.400 74.930,40.220 75.200,40.000 75.200 C 39.780 75.200,39.600 75.520,39.600 75.912 C 39.600 76.303,39.240 76.883,38.800 77.200 C 38.360 77.517,38.000 78.097,38.000 78.488 C 38.000 78.880,37.820 79.200,37.600 79.200 C 37.380 79.200,37.200 79.560,37.200 80.000 C 37.200 80.440,37.020 80.800,36.800 80.800 C 36.580 80.800,36.400 81.120,36.400 81.512 C 36.400 81.903,36.040 82.483,35.600 82.800 C 35.160 83.117,34.800 83.697,34.800 84.088 C 34.800 84.480,34.620 84.800,34.400 84.800 C 34.180 84.800,34.000 85.160,34.000 85.600 C 34.000 86.040,33.820 86.400,33.600 86.400 C 33.380 86.400,33.200 86.720,33.200 87.112 C 33.200 87.503,32.840 88.083,32.400 88.400 C 31.960 88.717,31.600 89.297,31.600 89.688 C 31.600 90.080,31.420 90.400,31.200 90.400 C 30.980 90.400,30.800 90.668,30.800 90.997 C 30.800 91.325,30.440 91.818,30.000 92.093 C 29.560 92.368,29.200 92.909,29.200 93.296 C 29.200 93.683,29.020 94.000,28.800 94.000 C 28.580 94.000,28.400 94.360,28.400 94.800 C 28.400 95.240,28.220 95.600,28.000 95.600 C 27.780 95.600,27.600 95.920,27.600 96.312 C 27.600 96.703,27.240 97.283,26.800 97.600 C 26.360 97.917,26.000 98.497,26.000 98.888 C 26.000 99.280,25.836 99.600,25.635 99.600 C 25.434 99.600,25.154 100.288,25.012 101.128 C 24.870 101.969,24.404 102.909,23.977 103.217 C 23.550 103.525,23.200 104.097,23.200 104.488 C 23.200 104.880,23.020 105.200,22.800 105.200 C 22.580 105.200,22.400 105.560,22.400 106.000 C 22.400 106.440,22.220 106.800,22.000 106.800 C 21.780 106.800,21.600 107.148,21.600 107.573 C 21.600 107.998,21.240 108.460,20.800 108.600 C 20.360 108.740,20.000 109.202,20.000 109.627 C 20.000 110.052,19.820 110.400,19.600 110.400 C 19.380 110.400,19.200 110.720,19.200 111.112 C 19.200 111.503,18.840 112.083,18.400 112.400 C 17.960 112.717,17.600 113.297,17.600 113.688 C 17.600 114.080,17.420 114.400,17.200 114.400 C 16.980 114.400,16.800 114.760,16.800 115.200 C 16.800 115.640,16.620 116.000,16.400 116.000 C 16.180 116.000,16.000 116.320,16.000 116.712 C 16.000 117.103,15.640 117.683,15.200 118.000 C 14.760 118.317,14.400 118.897,14.400 119.288 C 14.400 119.680,14.220 120.000,14.000 120.000 C 13.780 120.000,13.600 120.360,13.600 120.800 C 13.600 121.240,13.420 121.600,13.200 121.600 C 12.980 121.600,12.800 121.894,12.800 122.253 C 12.800 122.612,12.471 123.197,12.070 123.553 C 11.668 123.909,11.084 124.785,10.772 125.500 C 10.460 126.215,10.069 126.800,9.902 126.800 C 9.736 126.800,9.600 127.083,9.600 127.429 C 9.600 127.774,9.330 128.327,9.000 128.657 C 8.670 128.987,8.400 129.784,8.400 130.429 C 8.400 131.073,8.220 131.600,8.000 131.600 C 7.780 131.600,7.600 131.960,7.600 132.400 C 7.600 132.840,7.420 133.200,7.200 133.200 C 6.980 133.200,6.800 133.920,6.800 134.800 C 6.800 135.680,6.620 136.400,6.400 136.400 C 6.178 136.400,6.000 137.467,6.000 138.800 C 6.000 140.133,5.822 141.200,5.600 141.200 C 5.369 141.200,5.200 142.467,5.200 144.200 C 5.200 145.933,5.369 147.200,5.600 147.200 C 5.822 147.200,6.000 148.267,6.000 149.600 C 6.000 150.933,6.178 152.000,6.400 152.000 C 6.620 152.000,6.800 152.720,6.800 153.600 C 6.800 154.480,6.980 155.200,7.200 155.200 C 7.420 155.200,7.600 155.560,7.600 156.000 C 7.600 156.440,7.760 156.800,7.955 156.800 C 8.151 156.800,8.429 157.430,8.574 158.200 C 8.718 158.970,9.008 159.600,9.218 159.600 C 9.428 159.600,9.600 159.960,9.600 160.400 C 9.600 160.840,9.780 161.200,10.000 161.200 C 10.220 161.200,10.400 161.482,10.400 161.826 C 10.400 162.170,11.300 163.329,12.400 164.400 C 13.500 165.471,14.400 166.630,14.400 166.974 C 14.400 167.318,14.682 167.600,15.026 167.600 C 15.370 167.600,16.529 168.500,17.600 169.600 C 18.671 170.700,19.744 171.600,19.985 171.600 C 20.225 171.600,21.231 172.410,22.221 173.400 C 23.211 174.390,24.208 175.200,24.436 175.200 C 24.665 175.200,25.729 176.100,26.800 177.200 C 27.871 178.300,28.954 179.200,29.205 179.200 C 29.457 179.200,30.354 179.920,31.200 180.800 C 32.046 181.680,32.937 182.400,33.182 182.400 C 33.765 182.400,36.400 185.042,36.400 185.626 C 36.400 185.875,36.940 186.583,37.600 187.200 C 38.260 187.817,38.800 188.609,38.800 188.960 C 38.800 189.312,38.980 189.600,39.200 189.600 C 39.420 189.600,39.600 189.960,39.600 190.400 C 39.600 190.840,39.780 191.200,40.000 191.200 C 40.220 191.200,40.400 191.455,40.400 191.767 C 40.400 192.078,40.625 192.408,40.900 192.500 C 41.276 192.625,41.400 194.489,41.400 200.000 C 41.400 205.511,41.276 207.375,40.900 207.500 C 40.625 207.592,40.400 207.922,40.400 208.233 C 40.400 208.545,40.220 208.800,40.000 208.800 C 39.780 208.800,39.600 209.160,39.600 209.600 C 39.600 210.040,39.420 210.400,39.200 210.400 C 38.980 210.400,38.800 210.688,38.800 211.040 C 38.800 211.391,38.260 212.183,37.600 212.800 C 36.940 213.417,36.400 214.125,36.400 214.374 C 36.400 214.958,33.765 217.600,33.182 217.600 C 32.937 217.600,32.046 218.320,31.200 219.200 C 30.354 220.080,29.457 220.800,29.205 220.800 C 28.954 220.800,27.871 221.700,26.800 222.800 C 25.729 223.900,24.665 224.800,24.436 224.800 C 24.208 224.800,23.211 225.610,22.221 226.600 C 21.231 227.590,20.225 228.400,19.985 228.400 C 19.744 228.400,18.671 229.300,17.600 230.400 C 16.529 231.500,15.370 232.400,15.026 232.400 C 14.682 232.400,14.400 232.682,14.400 233.026 C 14.400 233.370,13.500 234.529,12.400 235.600 C 11.300 236.671,10.400 237.830,10.400 238.174 C 10.400 238.518,10.220 238.800,10.000 238.800 C 9.780 238.800,9.600 239.160,9.600 239.600 C 9.600 240.040,9.428 240.400,9.218 240.400 C 9.008 240.400,8.718 241.030,8.574 241.800 C 8.429 242.570,8.151 243.200,7.955 243.200 C 7.760 243.200,7.600 243.560,7.600 244.000 C 7.600 244.440,7.420 244.800,7.200 244.800 C 6.980 244.800,6.800 245.520,6.800 246.400 C 6.800 247.280,6.620 248.000,6.400 248.000 C 6.178 248.000,6.000 249.067,6.000 250.400 C 6.000 251.733,5.822 252.800,5.600 252.800 C 5.369 252.800,5.200 254.067,5.200 255.800 C 5.200 257.533,5.369 258.800,5.600 258.800 C 5.822 258.800,6.000 259.867,6.000 261.200 C 6.000 262.533,6.178 263.600,6.400 263.600 C 6.620 263.600,6.800 264.320,6.800 265.200 C 6.800 266.080,6.980 266.800,7.200 266.800 C 7.420 266.800,7.600 267.160,7.600 267.600 C 7.600 268.040,7.780 268.400,8.000 268.400 C 8.220 268.400,8.400 268.927,8.400 269.571 C 8.400 270.216,8.670 271.013,9.000 271.343 C 9.330 271.673,9.600 272.226,9.600 272.571 C 9.600 272.917,9.736 273.200,9.902 273.200 C 10.069 273.200,10.460 273.785,10.772 274.500 C 11.084 275.215,11.668 276.091,12.070 276.447 C 12.471 276.803,12.800 277.388,12.800 277.747 C 12.800 278.106,12.980 278.400,13.200 278.400 C 13.420 278.400,13.600 278.760,13.600 279.200 C 13.600 279.640,13.780 280.000,14.000 280.000 C 14.220 280.000,14.400 280.320,14.400 280.712 C 14.400 281.103,14.760 281.683,15.200 282.000 C 15.640 282.317,16.000 282.897,16.000 283.288 C 16.000 283.680,16.180 284.000,16.400 284.000 C 16.620 284.000,16.800 284.360,16.800 284.800 C 16.800 285.240,16.980 285.600,17.200 285.600 C 17.420 285.600,17.600 285.920,17.600 286.312 C 17.600 286.703,17.960 287.283,18.400 287.600 C 18.840 287.917,19.200 288.497,19.200 288.888 C 19.200 289.280,19.380 289.600,19.600 289.600 C 19.820 289.600,20.000 289.948,20.000 290.373 C 20.000 290.798,20.360 291.260,20.800 291.400 C 21.240 291.540,21.600 292.002,21.600 292.427 C 21.600 292.852,21.780 293.200,22.000 293.200 C 22.220 293.200,22.400 293.560,22.400 294.000 C 22.400 294.440,22.580 294.800,22.800 294.800 C 23.020 294.800,23.200 295.120,23.200 295.512 C 23.200 295.903,23.550 296.475,23.977 296.783 C 24.404 297.091,24.870 298.031,25.012 298.872 C 25.154 299.712,25.434 300.400,25.635 300.400 C 25.836 300.400,26.000 300.720,26.000 301.112 C 26.000 301.503,26.360 302.083,26.800 302.400 C 27.240 302.717,27.600 303.297,27.600 303.688 C 27.600 304.080,27.780 304.400,28.000 304.400 C 28.220 304.400,28.400 304.760,28.400 305.200 C 28.400 305.640,28.580 306.000,28.800 306.000 C 29.020 306.000,29.200 306.320,29.200 306.712 C 29.200 307.103,29.560 307.683,30.000 308.000 C 30.440 308.317,30.800 308.807,30.800 309.088 C 30.800 309.370,30.980 309.600,31.200 309.600 C 31.420 309.600,31.600 309.920,31.600 310.312 C 31.600 310.703,31.960 311.283,32.400 311.600 C 32.840 311.917,33.200 312.497,33.200 312.888 C 33.200 313.280,33.380 313.600,33.600 313.600 C 33.820 313.600,34.000 313.960,34.000 314.400 C 34.000 314.840,34.180 315.200,34.400 315.200 C 34.620 315.200,34.800 315.520,34.800 315.912 C 34.800 316.303,35.160 316.883,35.600 317.200 C 36.040 317.517,36.400 318.097,36.400 318.488 C 36.400 318.880,36.580 319.200,36.800 319.200 C 37.020 319.200,37.200 319.560,37.200 320.000 C 37.200 320.440,37.380 320.800,37.600 320.800 C 37.820 320.800,38.000 321.120,38.000 321.512 C 38.000 321.903,38.360 322.483,38.800 322.800 C 39.240 323.117,39.600 323.697,39.600 324.088 C 39.600 324.480,39.780 324.800,40.000 324.800 C 40.220 324.800,40.400 325.070,40.400 325.400 C 40.400 325.730,40.580 326.000,40.800 326.000 C 41.020 326.000,41.200 326.338,41.200 326.751 C 41.200 327.164,41.470 327.726,41.800 328.000 C 42.130 328.274,42.400 328.796,42.400 329.161 C 42.400 329.525,42.760 330.083,43.200 330.400 C 43.640 330.717,44.000 331.209,44.000 331.493 C 44.000 332.168,51.432 339.600,52.107 339.600 C 52.391 339.600,52.875 339.950,53.183 340.377 C 53.491 340.804,54.431 341.270,55.272 341.412 C 56.112 341.554,56.800 341.834,56.800 342.035 C 56.800 342.236,57.250 342.400,57.800 342.400 C 58.350 342.400,58.800 342.580,58.800 342.800 C 58.800 343.020,59.340 343.200,60.000 343.200 C 60.660 343.200,61.200 343.380,61.200 343.600 C 61.200 343.820,62.100 344.000,63.200 344.000 C 64.300 344.000,65.200 344.180,65.200 344.400 C 65.200 344.645,67.133 344.800,70.200 344.800 C 73.267 344.800,75.200 344.645,75.200 344.400 C 75.200 344.180,76.100 344.000,77.200 344.000 C 78.300 344.000,79.200 343.820,79.200 343.600 C 79.200 343.380,79.740 343.200,80.400 343.200 C 81.060 343.200,81.600 343.020,81.600 342.800 C 81.600 342.580,82.140 342.400,82.800 342.400 C 83.460 342.400,84.000 342.226,84.000 342.014 C 84.000 341.801,84.900 341.508,86.000 341.362 C 87.100 341.216,88.000 340.940,88.000 340.748 C 88.000 340.557,88.324 340.400,88.720 340.400 C 89.614 340.400,91.593 339.506,91.597 339.100 C 91.599 338.935,92.140 338.800,92.800 338.800 C 93.460 338.800,94.000 338.620,94.000 338.400 C 94.000 338.180,94.540 338.000,95.200 338.000 C 95.860 338.000,96.400 337.820,96.400 337.600 C 96.400 337.380,96.760 337.200,97.200 337.200 C 97.640 337.200,98.000 337.020,98.000 336.800 C 98.000 336.580,98.540 336.400,99.200 336.400 C 99.860 336.400,100.400 336.220,100.400 336.000 C 100.400 335.780,100.940 335.600,101.600 335.600 C 102.260 335.600,102.800 335.420,102.800 335.200 C 102.800 334.980,103.340 334.800,104.000 334.800 C 104.660 334.800,105.200 334.620,105.200 334.400 C 105.200 334.159,106.867 334.000,109.400 334.000 C 111.933 334.000,113.600 334.159,113.600 334.400 C 113.600 334.620,114.320 334.800,115.200 334.800 C 116.080 334.800,116.800 334.980,116.800 335.200 C 116.800 335.420,117.160 335.600,117.600 335.600 C 118.040 335.600,118.400 335.780,118.400 336.000 C 118.400 336.220,118.760 336.400,119.200 336.400 C 119.640 336.400,120.000 336.580,120.000 336.800 C 120.000 337.020,120.360 337.200,120.800 337.200 C 121.240 337.200,121.600 337.380,121.600 337.600 C 121.600 337.820,121.868 338.000,122.195 338.000 C 122.903 338.000,127.600 342.640,127.600 343.339 C 127.600 343.605,127.960 344.083,128.400 344.400 C 128.840 344.717,129.200 345.297,129.200 345.688 C 129.200 346.080,129.380 346.400,129.600 346.400 C 129.820 346.400,130.000 346.760,130.000 347.200 C 130.000 347.640,130.180 348.000,130.400 348.000 C 130.620 348.000,130.800 348.540,130.800 349.200 C 130.800 349.860,130.980 350.400,131.200 350.400 C 131.420 350.400,131.600 351.120,131.600 352.000 C 131.600 352.880,131.780 353.600,132.000 353.600 C 132.222 353.600,132.400 354.667,132.400 356.000 C 132.400 357.333,132.578 358.400,132.800 358.400 C 133.020 358.400,133.200 359.390,133.200 360.600 C 133.200 361.810,133.380 362.800,133.600 362.800 C 133.822 362.800,134.000 363.867,134.000 365.200 C 134.000 366.533,134.178 367.600,134.400 367.600 C 134.622 367.600,134.800 368.667,134.800 370.000 C 134.800 371.333,134.978 372.400,135.200 372.400 C 135.420 372.400,135.600 373.210,135.600 374.200 C 135.600 375.190,135.780 376.000,136.000 376.000 C 136.220 376.000,136.400 376.720,136.400 377.600 C 136.400 378.480,136.580 379.200,136.800 379.200 C 137.020 379.200,137.200 379.740,137.200 380.400 C 137.200 381.060,137.380 381.600,137.600 381.600 C 137.820 381.600,138.000 381.960,138.000 382.400 C 138.000 382.840,138.180 383.200,138.400 383.200 C 138.620 383.200,138.800 383.560,138.800 384.000 C 138.800 384.440,138.980 384.800,139.200 384.800 C 139.420 384.800,139.600 385.078,139.600 385.418 C 139.600 385.758,140.050 386.486,140.600 387.036 C 141.150 387.586,141.600 388.264,141.600 388.542 C 141.600 389.139,146.635 394.000,147.254 394.000 C 147.488 394.000,148.183 394.540,148.800 395.200 C 149.417 395.860,150.209 396.400,150.560 396.400 C 150.912 396.400,151.200 396.580,151.200 396.800 C 151.200 397.020,151.560 397.200,152.000 397.200 C 152.440 397.200,152.800 397.380,152.800 397.600 C 152.800 397.820,153.160 398.000,153.600 398.000 C 154.040 398.000,154.400 398.180,154.400 398.400 C 154.400 398.620,154.925 398.800,155.567 398.800 C 156.208 398.800,156.808 399.025,156.900 399.300 C 157.145 400.034,242.855 400.034,243.100 399.300 C 243.192 399.025,243.792 398.800,244.433 398.800 C 245.075 398.800,245.600 398.620,245.600 398.400 C 245.600 398.180,245.960 398.000,246.400 398.000 C 246.840 398.000,247.200 397.820,247.200 397.600 C 247.200 397.380,247.560 397.200,248.000 397.200 C 248.440 397.200,248.800 397.020,248.800 396.800 C 248.800 396.580,249.088 396.400,249.440 396.400 C 249.791 396.400,250.583 395.860,251.200 395.200 C 251.817 394.540,252.515 394.000,252.751 394.000 C 252.988 394.000,254.220 393.010,255.489 391.800 C 256.758 390.590,257.933 389.600,258.098 389.600 C 258.264 389.600,258.400 389.248,258.400 388.818 C 258.400 388.388,258.850 387.586,259.400 387.036 C 259.950 386.486,260.400 385.758,260.400 385.418 C 260.400 385.078,260.580 384.800,260.800 384.800 C 261.020 384.800,261.200 384.440,261.200 384.000 C 261.200 383.560,261.380 383.200,261.600 383.200 C 261.820 383.200,262.000 382.840,262.000 382.400 C 262.000 381.960,262.180 381.600,262.400 381.600 C 262.620 381.600,262.800 381.060,262.800 380.400 C 262.800 379.740,262.980 379.200,263.200 379.200 C 263.420 379.200,263.600 378.480,263.600 377.600 C 263.600 376.720,263.780 376.000,264.000 376.000 C 264.220 376.000,264.400 375.190,264.400 374.200 C 264.400 373.210,264.580 372.400,264.800 372.400 C 265.022 372.400,265.200 371.333,265.200 370.000 C 265.200 368.667,265.378 367.600,265.600 367.600 C 265.822 367.600,266.000 366.533,266.000 365.200 C 266.000 363.867,266.178 362.800,266.400 362.800 C 266.620 362.800,266.800 361.810,266.800 360.600 C 266.800 359.390,266.980 358.400,267.200 358.400 C 267.422 358.400,267.600 357.333,267.600 356.000 C 267.600 354.667,267.778 353.600,268.000 353.600 C 268.220 353.600,268.400 352.880,268.400 352.000 C 268.400 351.120,268.580 350.400,268.800 350.400 C 269.020 350.400,269.200 349.860,269.200 349.200 C 269.200 348.540,269.380 348.000,269.600 348.000 C 269.820 348.000,270.000 347.640,270.000 347.200 C 270.000 346.760,270.180 346.400,270.400 346.400 C 270.620 346.400,270.800 346.080,270.800 345.688 C 270.800 345.297,271.160 344.717,271.600 344.400 C 272.040 344.083,272.400 343.605,272.400 343.339 C 272.400 342.640,277.097 338.000,277.805 338.000 C 278.132 338.000,278.400 337.820,278.400 337.600 C 278.400 337.380,278.760 337.200,279.200 337.200 C 279.640 337.200,280.000 337.020,280.000 336.800 C 280.000 336.580,280.360 336.400,280.800 336.400 C 281.240 336.400,281.600 336.220,281.600 336.000 C 281.600 335.780,281.960 335.600,282.400 335.600 C 282.840 335.600,283.200 335.420,283.200 335.200 C 283.200 334.980,283.920 334.800,284.800 334.800 C 285.680 334.800,286.400 334.620,286.400 334.400 C 286.400 334.159,288.067 334.000,290.600 334.000 C 293.133 334.000,294.800 334.159,294.800 334.400 C 294.800 334.620,295.340 334.800,296.000 334.800 C 296.660 334.800,297.200 334.980,297.200 335.200 C 297.200 335.420,297.740 335.600,298.400 335.600 C 299.060 335.600,299.600 335.780,299.600 336.000 C 299.600 336.220,300.140 336.400,300.800 336.400 C 301.460 336.400,302.000 336.580,302.000 336.800 C 302.000 337.020,302.360 337.200,302.800 337.200 C 303.240 337.200,303.600 337.380,303.600 337.600 C 303.600 337.820,304.140 338.000,304.800 338.000 C 305.460 338.000,306.000 338.180,306.000 338.400 C 306.000 338.620,306.540 338.800,307.200 338.800 C 307.860 338.800,308.401 338.935,308.403 339.100 C 308.407 339.506,310.386 340.400,311.280 340.400 C 311.676 340.400,312.000 340.557,312.000 340.748 C 312.000 340.940,312.900 341.216,314.000 341.362 C 315.100 341.508,316.000 341.801,316.000 342.014 C 316.000 342.226,316.540 342.400,317.200 342.400 C 317.860 342.400,318.400 342.580,318.400 342.800 C 318.400 343.020,318.940 343.200,319.600 343.200 C 320.260 343.200,320.800 343.380,320.800 343.600 C 320.800 343.820,321.700 344.000,322.800 344.000 C 323.900 344.000,324.800 344.180,324.800 344.400 C 324.800 344.645,326.733 344.800,329.800 344.800 C 332.867 344.800,334.800 344.645,334.800 344.400 C 334.800 344.180,335.700 344.000,336.800 344.000 C 337.900 344.000,338.800 343.820,338.800 343.600 C 338.800 343.380,339.340 343.200,340.000 343.200 C 340.660 343.200,341.200 343.020,341.200 342.800 C 341.200 342.580,341.650 342.400,342.200 342.400 C 342.750 342.400,343.200 342.236,343.200 342.035 C 343.200 341.834,343.888 341.554,344.728 341.412 C 345.569 341.270,346.509 340.804,346.817 340.377 C 347.125 339.950,347.609 339.600,347.893 339.600 C 348.568 339.600,356.000 332.168,356.000 331.493 C 356.000 331.209,356.360 330.717,356.800 330.400 C 357.240 330.083,357.600 329.580,357.600 329.283 C 357.600 328.986,357.870 328.473,358.200 328.143 C 358.530 327.813,358.800 327.196,358.800 326.771 C 358.800 326.347,358.980 326.000,359.200 326.000 C 359.420 326.000,359.600 325.730,359.600 325.400 C 359.600 325.070,359.780 324.800,360.000 324.800 C 360.220 324.800,360.400 324.480,360.400 324.088 C 360.400 323.697,360.760 323.117,361.200 322.800 C 361.640 322.483,362.000 321.903,362.000 321.512 C 362.000 321.120,362.180 320.800,362.400 320.800 C 362.620 320.800,362.800 320.440,362.800 320.000 C 362.800 319.560,362.980 319.200,363.200 319.200 C 363.420 319.200,363.600 318.880,363.600 318.488 C 363.600 318.097,363.960 317.517,364.400 317.200 C 364.840 316.883,365.200 316.303,365.200 315.912 C 365.200 315.520,365.380 315.200,365.600 315.200 C 365.820 315.200,366.000 314.840,366.000 314.400 C 366.000 313.960,366.180 313.600,366.400 313.600 C 366.620 313.600,366.800 313.280,366.800 312.888 C 366.800 312.497,367.160 311.917,367.600 311.600 C 368.040 311.283,368.400 310.703,368.400 310.312 C 368.400 309.920,368.580 309.600,368.800 309.600 C 369.020 309.600,369.200 309.370,369.200 309.088 C 369.200 308.807,369.560 308.317,370.000 308.000 C 370.440 307.683,370.800 307.103,370.800 306.712 C 370.800 306.320,370.980 306.000,371.200 306.000 C 371.420 306.000,371.600 305.640,371.600 305.200 C 371.600 304.760,371.780 304.400,372.000 304.400 C 372.220 304.400,372.400 304.080,372.400 303.688 C 372.400 303.297,372.760 302.717,373.200 302.400 C 373.640 302.083,374.000 301.503,374.000 301.112 C 374.000 300.720,374.164 300.400,374.365 300.400 C 374.566 300.400,374.846 299.712,374.988 298.872 C 375.130 298.031,375.596 297.091,376.023 296.783 C 376.450 296.475,376.800 295.903,376.800 295.512 C 376.800 295.120,376.980 294.800,377.200 294.800 C 377.420 294.800,377.600 294.480,377.600 294.088 C 377.600 293.697,377.960 293.117,378.400 292.800 C 378.840 292.483,379.200 291.993,379.200 291.712 C 379.200 291.430,379.380 291.200,379.600 291.200 C 379.820 291.200,380.000 290.840,380.000 290.400 C 380.000 289.960,380.180 289.600,380.400 289.600 C 380.620 289.600,380.800 289.280,380.800 288.888 C 380.800 288.497,381.160 287.917,381.600 287.600 C 382.040 287.283,382.400 286.703,382.400 286.312 C 382.400 285.920,382.580 285.600,382.800 285.600 C 383.020 285.600,383.200 285.240,383.200 284.800 C 383.200 284.360,383.380 284.000,383.600 284.000 C 383.820 284.000,384.000 283.680,384.000 283.288 C 384.000 282.897,384.360 282.317,384.800 282.000 C 385.240 281.683,385.600 281.103,385.600 280.712 C 385.600 280.320,385.780 280.000,386.000 280.000 C 386.220 280.000,386.400 279.640,386.400 279.200 C 386.400 278.760,386.580 278.400,386.800 278.400 C 387.020 278.400,387.200 278.080,387.200 277.688 C 387.200 277.297,387.560 276.717,388.000 276.400 C 388.440 276.083,388.800 275.593,388.800 275.312 C 388.800 275.030,388.980 274.800,389.200 274.800 C 389.420 274.800,389.600 274.440,389.600 274.000 C 389.600 273.560,389.780 273.200,390.000 273.200 C 390.220 273.200,390.400 272.917,390.400 272.571 C 390.400 272.226,390.670 271.673,391.000 271.343 C 391.330 271.013,391.600 270.216,391.600 269.571 C 391.600 268.927,391.780 268.400,392.000 268.400 C 392.220 268.400,392.400 268.040,392.400 267.600 C 392.400 267.160,392.580 266.800,392.800 266.800 C 393.020 266.800,393.200 266.080,393.200 265.200 C 393.200 264.320,393.380 263.600,393.600 263.600 C 393.822 263.600,394.000 262.533,394.000 261.200 C 394.000 259.867,394.178 258.800,394.400 258.800 C 394.626 258.800,394.800 257.667,394.800 256.200 C 394.800 254.733,394.626 253.600,394.400 253.600 C 394.171 253.600,394.000 252.400,394.000 250.800 C 394.000 249.200,393.829 248.000,393.600 248.000 C 393.380 248.000,393.200 247.280,393.200 246.400 C 393.200 245.520,393.020 244.800,392.800 244.800 C 392.580 244.800,392.400 244.440,392.400 244.000 C 392.400 243.560,392.240 243.200,392.045 243.200 C 391.849 243.200,391.571 242.570,391.426 241.800 C 391.282 241.030,390.992 240.400,390.782 240.400 C 390.572 240.400,390.400 240.040,390.400 239.600 C 390.400 239.160,390.220 238.800,390.000 238.800 C 389.780 238.800,389.600 238.518,389.600 238.174 C 389.600 237.830,388.700 236.671,387.600 235.600 C 386.500 234.529,385.600 233.370,385.600 233.026 C 385.600 232.682,385.318 232.400,384.974 232.400 C 384.630 232.400,383.471 231.500,382.400 230.400 C 381.329 229.300,380.256 228.400,380.015 228.400 C 379.775 228.400,378.769 227.590,377.779 226.600 C 376.789 225.610,375.792 224.800,375.564 224.800 C 375.335 224.800,374.271 223.900,373.200 222.800 C 372.129 221.700,371.046 220.800,370.795 220.800 C 370.543 220.800,369.646 220.080,368.800 219.200 C 367.954 218.320,367.063 217.600,366.818 217.600 C 366.235 217.600,363.600 214.958,363.600 214.374 C 363.600 214.125,363.060 213.417,362.400 212.800 C 361.740 212.183,361.200 211.391,361.200 211.040 C 361.200 210.688,361.020 210.400,360.800 210.400 C 360.580 210.400,360.400 210.040,360.400 209.600 C 360.400 209.160,360.220 208.800,360.000 208.800 C 359.780 208.800,359.600 208.545,359.600 208.233 C 359.600 207.922,359.375 207.592,359.100 207.500 C 358.724 207.375,358.600 205.511,358.600 200.000 C 358.600 194.489,358.724 192.625,359.100 192.500 C 359.375 192.408,359.600 192.078,359.600 191.767 C 359.600 191.455,359.780 191.200,360.000 191.200 C 360.220 191.200,360.400 190.840,360.400 190.400 C 360.400 189.960,360.580 189.600,360.800 189.600 C 361.020 189.600,361.200 189.312,361.200 188.960 C 361.200 188.609,361.740 187.817,362.400 187.200 C 363.060 186.583,363.600 185.875,363.600 185.626 C 363.600 185.042,366.235 182.400,366.818 182.400 C 367.063 182.400,367.954 181.680,368.800 180.800 C 369.646 179.920,370.543 179.200,370.795 179.200 C 371.046 179.200,372.129 178.300,373.200 177.200 C 374.271 176.100,375.335 175.200,375.564 175.200 C 375.792 175.200,376.789 174.390,377.779 173.400 C 378.769 172.410,379.766 171.600,379.994 171.600 C 380.652 171.600,389.600 162.475,389.600 161.804 C 389.600 161.472,389.780 161.200,390.000 161.200 C 390.220 161.200,390.400 160.840,390.400 160.400 C 390.400 159.960,390.572 159.600,390.782 159.600 C 390.992 159.600,391.282 158.970,391.426 158.200 C 391.571 157.430,391.849 156.800,392.045 156.800 C 392.240 156.800,392.400 156.440,392.400 156.000 C 392.400 155.560,392.580 155.200,392.800 155.200 C 393.020 155.200,393.200 154.480,393.200 153.600 C 393.200 152.720,393.380 152.000,393.600 152.000 C 393.829 152.000,394.000 150.800,394.000 149.200 C 394.000 147.600,394.171 146.400,394.400 146.400 C 394.626 146.400,394.800 145.267,394.800 143.800 C 394.800 142.333,394.626 141.200,394.400 141.200 C 394.178 141.200,394.000 140.133,394.000 138.800 C 394.000 137.467,393.822 136.400,393.600 136.400 C 393.380 136.400,393.200 135.680,393.200 134.800 C 393.200 133.920,393.020 133.200,392.800 133.200 C 392.580 133.200,392.400 132.840,392.400 132.400 C 392.400 131.960,392.220 131.600,392.000 131.600 C 391.780 131.600,391.600 131.073,391.600 130.429 C 391.600 129.784,391.330 128.987,391.000 128.657 C 390.670 128.327,390.400 127.774,390.400 127.429 C 390.400 127.083,390.264 126.800,390.098 126.800 C 389.931 126.800,389.540 126.215,389.228 125.500 C 388.916 124.785,388.332 123.909,387.930 123.553 C 387.529 123.197,387.200 122.612,387.200 122.253 C 387.200 121.894,387.020 121.600,386.800 121.600 C 386.580 121.600,386.400 121.240,386.400 120.800 C 386.400 120.360,386.220 120.000,386.000 120.000 C 385.780 120.000,385.600 119.680,385.600 119.288 C 385.600 118.897,385.240 118.317,384.800 118.000 C 384.360 117.683,384.000 117.103,384.000 116.712 C 384.000 116.320,383.820 116.000,383.600 116.000 C 383.380 116.000,383.200 115.640,383.200 115.200 C 383.200 114.760,383.020 114.400,382.800 114.400 C 382.580 114.400,382.400 114.080,382.400 113.688 C 382.400 113.297,382.040 112.717,381.600 112.400 C 381.160 112.083,380.800 111.503,380.800 111.112 C 380.800 110.720,380.620 110.400,380.400 110.400 C 380.180 110.400,380.000 110.040,380.000 109.600 C 380.000 109.160,379.820 108.800,379.600 108.800 C 379.380 108.800,379.200 108.570,379.200 108.288 C 379.200 108.007,378.840 107.517,378.400 107.200 C 377.960 106.883,377.600 106.303,377.600 105.912 C 377.600 105.520,377.420 105.200,377.200 105.200 C 376.980 105.200,376.800 104.880,376.800 104.488 C 376.800 104.097,376.450 103.525,376.023 103.217 C 375.596 102.909,375.130 101.969,374.988 101.128 C 374.846 100.288,374.566 99.600,374.365 99.600 C 374.164 99.600,374.000 99.280,374.000 98.888 C 374.000 98.497,373.640 97.917,373.200 97.600 C 372.760 97.283,372.400 96.703,372.400 96.312 C 372.400 95.920,372.220 95.600,372.000 95.600 C 371.780 95.600,371.600 95.240,371.600 94.800 C 371.600 94.360,371.420 94.000,371.200 94.000 C 370.980 94.000,370.800 93.683,370.800 93.296 C 370.800 92.909,370.440 92.368,370.000 92.093 C 369.560 91.818,369.200 91.325,369.200 90.997 C 369.200 90.668,369.020 90.400,368.800 90.400 C 368.580 90.400,368.400 90.080,368.400 89.688 C 368.400 89.297,368.040 88.717,367.600 88.400 C 367.160 88.083,366.800 87.503,366.800 87.112 C 366.800 86.720,366.620 86.400,366.400 86.400 C 366.180 86.400,366.000 86.040,366.000 85.600 C 366.000 85.160,365.820 84.800,365.600 84.800 C 365.380 84.800,365.200 84.480,365.200 84.088 C 365.200 83.697,364.840 83.117,364.400 82.800 C 363.960 82.483,363.600 81.903,363.600 81.512 C 363.600 81.120,363.420 80.800,363.200 80.800 C 362.980 80.800,362.800 80.440,362.800 80.000 C 362.800 79.560,362.620 79.200,362.400 79.200 C 362.180 79.200,362.000 78.880,362.000 78.488 C 362.000 78.097,361.640 77.517,361.200 77.200 C 360.760 76.883,360.400 76.303,360.400 75.912 C 360.400 75.520,360.220 75.200,360.000 75.200 C 359.780 75.200,359.600 74.930,359.600 74.600 C 359.600 74.270,359.420 74.000,359.200 74.000 C 358.980 74.000,358.800 73.653,358.800 73.229 C 358.800 72.804,358.530 72.187,358.200 71.857 C 357.870 71.527,357.600 71.014,357.600 70.717 C 357.600 70.420,357.240 69.917,356.800 69.600 C 356.360 69.283,356.000 68.791,356.000 68.507 C 356.000 67.832,348.568 60.400,347.893 60.400 C 347.609 60.400,347.125 60.050,346.817 59.623 C 346.509 59.196,345.569 58.730,344.728 58.588 C 343.888 58.446,343.200 58.166,343.200 57.965 C 343.200 57.764,342.750 57.600,342.200 57.600 C 341.650 57.600,341.200 57.420,341.200 57.200 C 341.200 56.980,340.660 56.800,340.000 56.800 C 339.340 56.800,338.800 56.620,338.800 56.400 C 338.800 56.180,337.900 56.000,336.800 56.000 C 335.700 56.000,334.800 55.820,334.800 55.600 C 334.800 55.355,332.867 55.200,329.800 55.200 C 326.733 55.200,324.800 55.355,324.800 55.600 C 324.800 55.820,323.900 56.000,322.800 56.000 C 321.700 56.000,320.800 56.180,320.800 56.400 C 320.800 56.620,320.260 56.800,319.600 56.800 C 318.940 56.800,318.400 56.980,318.400 57.200 C 318.400 57.420,317.860 57.600,317.200 57.600 C 316.540 57.600,316.000 57.774,316.000 57.986 C 316.000 58.199,315.100 58.492,314.000 58.638 C 312.900 58.784,312.000 59.060,312.000 59.252 C 312.000 59.443,311.676 59.600,311.280 59.600 C 310.386 59.600,308.407 60.494,308.403 60.900 C 308.401 61.065,307.860 61.200,307.200 61.200 C 306.540 61.200,306.000 61.380,306.000 61.600 C 306.000 61.820,305.460 62.000,304.800 62.000 C 304.140 62.000,303.600 62.180,303.600 62.400 C 303.600 62.620,303.240 62.800,302.800 62.800 C 302.360 62.800,302.000 62.980,302.000 63.200 C 302.000 63.420,301.460 63.600,300.800 63.600 C 300.140 63.600,299.600 63.780,299.600 64.000 C 299.600 64.220,299.060 64.400,298.400 64.400 C 297.740 64.400,297.200 64.580,297.200 64.800 C 297.200 65.020,296.660 65.200,296.000 65.200 C 295.340 65.200,294.800 65.380,294.800 65.600 C 294.800 65.841,293.133 66.000,290.600 66.000 C 288.067 66.000,286.400 65.841,286.400 65.600 C 286.400 65.380,285.680 65.200,284.800 65.200 C 283.920 65.200,283.200 65.020,283.200 64.800 C 283.200 64.580,282.840 64.400,282.400 64.400 C 281.960 64.400,281.600 64.220,281.600 64.000 C 281.600 63.780,281.240 63.600,280.800 63.600 C 280.360 63.600,280.000 63.420,280.000 63.200 C 280.000 62.980,279.640 62.800,279.200 62.800 C 278.760 62.800,278.400 62.620,278.400 62.400 C 278.400 62.180,278.132 62.000,277.805 62.000 C 277.097 62.000,272.400 57.360,272.400 56.661 C 272.400 56.395,272.040 55.917,271.600 55.600 C 271.160 55.283,270.800 54.703,270.800 54.312 C 270.800 53.920,270.620 53.600,270.400 53.600 C 270.180 53.600,270.000 53.240,270.000 52.800 C 270.000 52.360,269.820 52.000,269.600 52.000 C 269.380 52.000,269.200 51.460,269.200 50.800 C 269.200 50.140,269.020 49.600,268.800 49.600 C 268.580 49.600,268.400 48.880,268.400 48.000 C 268.400 47.120,268.220 46.400,268.000 46.400 C 267.780 46.400,267.600 45.421,267.600 44.224 C 267.600 43.027,267.420 41.936,267.200 41.800 C 266.980 41.664,266.800 40.573,266.800 39.376 C 266.800 38.179,266.620 37.200,266.400 37.200 C 266.178 37.200,266.000 36.133,266.000 34.800 C 266.000 33.467,265.822 32.400,265.600 32.400 C 265.378 32.400,265.200 31.333,265.200 30.000 C 265.200 28.667,265.022 27.600,264.800 27.600 C 264.580 27.600,264.400 26.790,264.400 25.800 C 264.400 24.810,264.220 24.000,264.000 24.000 C 263.780 24.000,263.600 23.280,263.600 22.400 C 263.600 21.520,263.420 20.800,263.200 20.800 C 262.980 20.800,262.800 20.260,262.800 19.600 C 262.800 18.940,262.620 18.400,262.400 18.400 C 262.180 18.400,262.000 18.040,262.000 17.600 C 262.000 17.160,261.820 16.800,261.600 16.800 C 261.380 16.800,261.200 16.440,261.200 16.000 C 261.200 15.560,261.020 15.200,260.800 15.200 C 260.580 15.200,260.400 14.880,260.400 14.488 C 260.400 14.097,260.040 13.517,259.600 13.200 C 259.160 12.883,258.800 12.336,258.800 11.984 C 258.800 11.291,253.450 6.000,252.749 6.000 C 252.514 6.000,251.817 5.460,251.200 4.800 C 250.583 4.140,249.791 3.600,249.440 3.600 C 249.088 3.600,248.800 3.420,248.800 3.200 C 248.800 2.980,248.440 2.800,248.000 2.800 C 247.560 2.800,247.200 2.620,247.200 2.400 C 247.200 2.180,246.840 2.000,246.400 2.000 C 245.960 2.000,245.600 1.820,245.600 1.600 C 245.600 1.380,245.075 1.200,244.433 1.200 C 243.792 1.200,243.192 0.975,243.100 0.700 C 242.940 0.220,162.515 -0.173,158.300 0.285 M232.400 34.000 C 232.400 35.333,232.578 36.400,232.800 36.400 C 233.022 36.400,233.200 37.467,233.200 38.800 C 233.200 40.133,233.378 41.200,233.600 41.200 C 233.820 41.200,234.000 42.190,234.000 43.400 C 234.000 44.610,234.180 45.600,234.400 45.600 C 234.622 45.600,234.800 46.667,234.800 48.000 C 234.800 49.333,234.978 50.400,235.200 50.400 C 235.422 50.400,235.600 51.467,235.600 52.800 C 235.600 54.133,235.778 55.200,236.000 55.200 C 236.220 55.200,236.400 55.920,236.400 56.800 C 236.400 57.680,236.580 58.400,236.800 58.400 C 237.020 58.400,237.200 58.850,237.200 59.400 C 237.200 59.950,237.380 60.400,237.600 60.400 C 237.820 60.400,238.000 60.940,238.000 61.600 C 238.000 62.260,238.180 62.800,238.400 62.800 C 238.620 62.800,238.800 63.340,238.800 64.000 C 238.800 64.660,238.980 65.200,239.200 65.200 C 239.420 65.200,239.600 65.560,239.600 66.000 C 239.600 66.440,239.780 66.800,240.000 66.800 C 240.220 66.800,240.400 67.160,240.400 67.600 C 240.400 68.040,240.580 68.400,240.800 68.400 C 241.020 68.400,241.200 68.680,241.200 69.022 C 241.200 69.931,242.660 72.986,243.380 73.584 C 243.721 73.866,244.000 74.306,244.000 74.561 C 244.000 74.815,244.360 75.283,244.800 75.600 C 245.240 75.917,245.600 76.417,245.600 76.710 C 245.600 77.004,246.680 78.304,248.000 79.600 C 249.320 80.896,250.400 82.236,250.400 82.578 C 250.400 82.920,250.680 83.200,251.022 83.200 C 251.364 83.200,252.704 84.280,254.000 85.600 C 255.296 86.920,256.593 88.000,256.883 88.000 C 257.173 88.000,257.756 88.461,258.179 89.024 C 258.927 90.020,261.816 91.600,262.890 91.600 C 263.183 91.600,263.683 91.960,264.000 92.400 C 264.317 92.840,264.897 93.200,265.288 93.200 C 265.680 93.200,266.000 93.380,266.000 93.600 C 266.000 93.820,266.540 94.000,267.200 94.000 C 267.860 94.000,268.400 94.180,268.400 94.400 C 268.400 94.620,268.760 94.800,269.200 94.800 C 269.640 94.800,270.000 94.980,270.000 95.200 C 270.000 95.420,270.540 95.600,271.200 95.600 C 271.860 95.600,272.400 95.780,272.400 96.000 C 272.400 96.220,272.940 96.400,273.600 96.400 C 274.260 96.400,274.800 96.580,274.800 96.800 C 274.800 97.020,275.430 97.200,276.200 97.200 C 276.970 97.200,277.600 97.380,277.600 97.600 C 277.600 97.820,278.500 98.000,279.600 98.000 C 280.700 98.000,281.600 98.180,281.600 98.400 C 281.600 98.654,284.733 98.800,290.200 98.800 C 295.667 98.800,298.800 98.654,298.800 98.400 C 298.800 98.180,299.700 98.000,300.800 98.000 C 301.900 98.000,302.800 97.820,302.800 97.600 C 302.800 97.380,303.520 97.200,304.400 97.200 C 305.280 97.200,306.000 97.020,306.000 96.800 C 306.000 96.580,306.540 96.400,307.200 96.400 C 307.860 96.400,308.400 96.220,308.400 96.000 C 308.400 95.780,308.850 95.600,309.400 95.600 C 309.950 95.600,310.400 95.420,310.400 95.200 C 310.400 94.980,310.940 94.800,311.600 94.800 C 312.260 94.800,312.800 94.620,312.800 94.400 C 312.800 94.180,313.340 94.000,314.000 94.000 C 314.660 94.000,315.200 93.820,315.200 93.600 C 315.200 93.380,315.560 93.200,316.000 93.200 C 316.440 93.200,316.800 93.020,316.800 92.800 C 316.800 92.580,317.340 92.400,318.000 92.400 C 318.660 92.400,319.200 92.220,319.200 92.000 C 319.200 91.780,319.695 91.599,320.300 91.598 C 320.905 91.596,321.916 91.326,322.546 90.998 C 323.176 90.669,324.031 90.400,324.446 90.400 C 324.861 90.400,325.200 90.220,325.200 90.000 C 325.200 89.780,325.740 89.600,326.400 89.600 C 327.060 89.600,327.600 89.420,327.600 89.200 C 327.600 88.980,327.878 88.800,328.218 88.800 C 328.914 88.800,330.800 90.540,330.800 91.182 C 330.800 91.412,330.980 91.600,331.200 91.600 C 331.420 91.600,331.600 91.960,331.600 92.400 C 331.600 92.840,331.780 93.200,332.000 93.200 C 332.220 93.200,332.400 93.520,332.400 93.912 C 332.400 94.303,332.760 94.883,333.200 95.200 C 333.640 95.517,334.000 96.097,334.000 96.488 C 334.000 96.880,334.180 97.200,334.400 97.200 C 334.620 97.200,334.800 97.560,334.800 98.000 C 334.800 98.440,334.980 98.800,335.200 98.800 C 335.420 98.800,335.600 99.120,335.600 99.512 C 335.600 99.903,335.960 100.483,336.400 100.800 C 336.840 101.117,337.200 101.697,337.200 102.088 C 337.200 102.480,337.380 102.800,337.600 102.800 C 337.820 102.800,338.000 103.120,338.000 103.512 C 338.000 103.903,338.360 104.483,338.800 104.800 C 339.240 105.117,339.600 105.697,339.600 106.088 C 339.600 106.480,339.780 106.800,340.000 106.800 C 340.220 106.800,340.400 107.160,340.400 107.600 C 340.400 108.040,340.580 108.400,340.800 108.400 C 341.020 108.400,341.200 108.648,341.200 108.951 C 341.200 109.254,341.470 109.726,341.800 110.000 C 342.130 110.274,342.400 110.836,342.400 111.249 C 342.400 111.662,342.580 112.000,342.800 112.000 C 343.020 112.000,343.200 112.360,343.200 112.800 C 343.200 113.240,343.380 113.600,343.600 113.600 C 343.820 113.600,344.000 113.920,344.000 114.312 C 344.000 114.703,344.360 115.283,344.800 115.600 C 345.240 115.917,345.600 116.497,345.600 116.888 C 345.600 117.280,345.780 117.600,346.000 117.600 C 346.220 117.600,346.400 117.920,346.400 118.312 C 346.400 118.703,346.760 119.283,347.200 119.600 C 347.640 119.917,348.000 120.497,348.000 120.888 C 348.000 121.280,348.180 121.600,348.400 121.600 C 348.620 121.600,348.800 121.960,348.800 122.400 C 348.800 122.840,348.980 123.200,349.200 123.200 C 349.420 123.200,349.600 123.548,349.600 123.973 C 349.600 124.398,349.960 124.860,350.400 125.000 C 350.840 125.140,351.200 125.602,351.200 126.027 C 351.200 126.452,351.380 126.800,351.600 126.800 C 351.820 126.800,352.000 127.160,352.000 127.600 C 352.000 128.040,352.180 128.400,352.400 128.400 C 352.620 128.400,352.800 128.720,352.800 129.112 C 352.800 129.503,353.160 130.083,353.600 130.400 C 354.040 130.717,354.400 131.297,354.400 131.688 C 354.400 132.080,354.580 132.400,354.800 132.400 C 355.020 132.400,355.200 132.760,355.200 133.200 C 355.200 133.640,355.380 134.000,355.600 134.000 C 355.820 134.000,356.000 134.320,356.000 134.712 C 356.000 135.103,356.360 135.683,356.800 136.000 C 357.240 136.317,357.600 136.897,357.600 137.288 C 357.600 137.680,357.780 138.000,358.000 138.000 C 358.220 138.000,358.400 138.338,358.400 138.751 C 358.400 139.164,358.670 139.726,359.000 140.000 C 359.330 140.274,359.600 140.746,359.600 141.049 C 359.600 141.352,359.780 141.600,360.000 141.600 C 360.220 141.600,360.400 141.945,360.400 142.367 C 360.400 142.788,360.620 143.207,360.889 143.296 C 361.352 143.451,359.578 145.600,358.987 145.600 C 358.850 145.600,358.046 146.320,357.200 147.200 C 356.354 148.080,355.457 148.800,355.205 148.800 C 354.954 148.800,353.871 149.700,352.800 150.800 C 351.729 151.900,350.649 152.800,350.400 152.800 C 350.151 152.800,349.071 153.700,348.000 154.800 C 346.929 155.900,345.838 156.800,345.576 156.800 C 344.975 156.800,337.200 164.626,337.200 165.231 C 337.200 165.477,336.660 166.183,336.000 166.800 C 335.340 167.417,334.800 168.169,334.800 168.472 C 334.800 168.775,334.440 169.283,334.000 169.600 C 333.560 169.917,333.200 170.497,333.200 170.888 C 333.200 171.280,333.020 171.600,332.800 171.600 C 332.580 171.600,332.400 171.960,332.400 172.400 C 332.400 172.840,332.220 173.200,332.000 173.200 C 331.780 173.200,331.600 173.560,331.600 174.000 C 331.600 174.440,331.420 174.800,331.200 174.800 C 330.980 174.800,330.800 175.070,330.800 175.400 C 330.800 175.730,330.620 176.000,330.400 176.000 C 330.180 176.000,330.000 176.360,330.000 176.800 C 330.000 177.240,329.820 177.600,329.600 177.600 C 329.380 177.600,329.200 177.960,329.200 178.400 C 329.200 178.840,329.020 179.200,328.800 179.200 C 328.580 179.200,328.400 179.740,328.400 180.400 C 328.400 181.060,328.220 181.600,328.000 181.600 C 327.780 181.600,327.600 182.140,327.600 182.800 C 327.600 183.460,327.420 184.000,327.200 184.000 C 326.980 184.000,326.800 184.720,326.800 185.600 C 326.800 186.480,326.620 187.200,326.400 187.200 C 326.180 187.200,326.000 188.179,326.000 189.376 C 326.000 190.573,325.820 191.664,325.600 191.800 C 325.060 192.134,325.060 207.866,325.600 208.200 C 325.820 208.336,326.000 209.427,326.000 210.624 C 326.000 211.821,326.180 212.800,326.400 212.800 C 326.620 212.800,326.800 213.520,326.800 214.400 C 326.800 215.280,326.980 216.000,327.200 216.000 C 327.420 216.000,327.600 216.540,327.600 217.200 C 327.600 217.860,327.780 218.400,328.000 218.400 C 328.220 218.400,328.400 218.940,328.400 219.600 C 328.400 220.260,328.580 220.800,328.800 220.800 C 329.020 220.800,329.200 221.160,329.200 221.600 C 329.200 222.040,329.380 222.400,329.600 222.400 C 329.820 222.400,330.000 222.760,330.000 223.200 C 330.000 223.640,330.180 224.000,330.400 224.000 C 330.620 224.000,330.800 224.270,330.800 224.600 C 330.800 224.930,330.980 225.200,331.200 225.200 C 331.420 225.200,331.600 225.560,331.600 226.000 C 331.600 226.440,331.780 226.800,332.000 226.800 C 332.220 226.800,332.400 227.160,332.400 227.600 C 332.400 228.040,332.580 228.400,332.800 228.400 C 333.020 228.400,333.200 228.720,333.200 229.112 C 333.200 229.503,333.560 230.083,334.000 230.400 C 334.440 230.717,334.800 231.225,334.800 231.528 C 334.800 231.831,335.340 232.583,336.000 233.200 C 336.660 233.817,337.200 234.523,337.200 234.769 C 337.200 235.374,344.975 243.200,345.576 243.200 C 345.838 243.200,346.929 244.100,348.000 245.200 C 349.071 246.300,350.151 247.200,350.400 247.200 C 350.649 247.200,351.729 248.100,352.800 249.200 C 353.871 250.300,354.954 251.200,355.205 251.200 C 355.457 251.200,356.354 251.920,357.200 252.800 C 358.046 253.680,358.850 254.400,358.987 254.400 C 359.578 254.400,361.352 256.549,360.889 256.704 C 360.620 256.793,360.400 257.212,360.400 257.633 C 360.400 258.055,360.220 258.400,360.000 258.400 C 359.780 258.400,359.600 258.648,359.600 258.951 C 359.600 259.254,359.330 259.726,359.000 260.000 C 358.670 260.274,358.400 260.836,358.400 261.249 C 358.400 261.662,358.220 262.000,358.000 262.000 C 357.780 262.000,357.600 262.320,357.600 262.712 C 357.600 263.103,357.240 263.683,356.800 264.000 C 356.360 264.317,356.000 264.897,356.000 265.288 C 356.000 265.680,355.820 266.000,355.600 266.000 C 355.380 266.000,355.200 266.360,355.200 266.800 C 355.200 267.240,355.020 267.600,354.800 267.600 C 354.580 267.600,354.400 267.920,354.400 268.312 C 354.400 268.703,354.040 269.283,353.600 269.600 C 353.160 269.917,352.800 270.497,352.800 270.888 C 352.800 271.280,352.620 271.600,352.400 271.600 C 352.180 271.600,352.000 271.960,352.000 272.400 C 352.000 272.840,351.820 273.200,351.600 273.200 C 351.380 273.200,351.200 273.548,351.200 273.973 C 351.200 274.398,350.840 274.860,350.400 275.000 C 349.960 275.140,349.600 275.602,349.600 276.027 C 349.600 276.452,349.420 276.800,349.200 276.800 C 348.980 276.800,348.800 277.160,348.800 277.600 C 348.800 278.040,348.620 278.400,348.400 278.400 C 348.180 278.400,348.000 278.720,348.000 279.112 C 348.000 279.503,347.640 280.083,347.200 280.400 C 346.760 280.717,346.400 281.297,346.400 281.688 C 346.400 282.080,346.220 282.400,346.000 282.400 C 345.780 282.400,345.600 282.720,345.600 283.112 C 345.600 283.503,345.240 284.083,344.800 284.400 C 344.360 284.717,344.000 285.297,344.000 285.688 C 344.000 286.080,343.820 286.400,343.600 286.400 C 343.380 286.400,343.200 286.760,343.200 287.200 C 343.200 287.640,343.020 288.000,342.800 288.000 C 342.580 288.000,342.400 288.338,342.400 288.751 C 342.400 289.164,342.167 289.695,341.882 289.932 C 341.597 290.168,341.114 291.000,340.808 291.781 C 340.501 292.561,340.104 293.200,339.925 293.200 C 339.746 293.200,339.600 293.520,339.600 293.912 C 339.600 294.303,339.240 294.883,338.800 295.200 C 338.360 295.517,338.000 296.097,338.000 296.488 C 338.000 296.880,337.820 297.200,337.600 297.200 C 337.380 297.200,337.200 297.520,337.200 297.912 C 337.200 298.303,336.840 298.883,336.400 299.200 C 335.960 299.517,335.600 300.097,335.600 300.488 C 335.600 300.880,335.420 301.200,335.200 301.200 C 334.980 301.200,334.800 301.560,334.800 302.000 C 334.800 302.440,334.620 302.800,334.400 302.800 C 334.180 302.800,334.000 303.120,334.000 303.512 C 334.000 303.903,333.640 304.483,333.200 304.800 C 332.760 305.117,332.400 305.697,332.400 306.088 C 332.400 306.480,332.220 306.800,332.000 306.800 C 331.780 306.800,331.600 307.160,331.600 307.600 C 331.600 308.040,331.420 308.400,331.200 308.400 C 330.980 308.400,330.800 308.588,330.800 308.818 C 330.800 309.460,328.914 311.200,328.218 311.200 C 327.878 311.200,327.600 311.020,327.600 310.800 C 327.600 310.580,327.060 310.400,326.400 310.400 C 325.740 310.400,325.200 310.220,325.200 310.000 C 325.200 309.780,324.861 309.600,324.446 309.600 C 324.031 309.600,323.176 309.331,322.546 309.002 C 321.916 308.674,320.905 308.404,320.300 308.402 C 319.695 308.401,319.200 308.220,319.200 308.000 C 319.200 307.780,318.660 307.600,318.000 307.600 C 317.340 307.600,316.800 307.420,316.800 307.200 C 316.800 306.980,316.440 306.800,316.000 306.800 C 315.560 306.800,315.200 306.620,315.200 306.400 C 315.200 306.180,314.660 306.000,314.000 306.000 C 313.340 306.000,312.800 305.820,312.800 305.600 C 312.800 305.380,312.260 305.200,311.600 305.200 C 310.940 305.200,310.400 305.020,310.400 304.800 C 310.400 304.580,309.950 304.400,309.400 304.400 C 308.850 304.400,308.400 304.220,308.400 304.000 C 308.400 303.780,307.860 303.600,307.200 303.600 C 306.540 303.600,306.000 303.420,306.000 303.200 C 306.000 302.980,305.280 302.800,304.400 302.800 C 303.520 302.800,302.800 302.620,302.800 302.400 C 302.800 302.180,301.900 302.000,300.800 302.000 C 299.700 302.000,298.800 301.820,298.800 301.600 C 298.800 301.346,295.667 301.200,290.200 301.200 C 284.733 301.200,281.600 301.346,281.600 301.600 C 281.600 301.820,280.700 302.000,279.600 302.000 C 278.500 302.000,277.600 302.180,277.600 302.400 C 277.600 302.620,276.970 302.800,276.200 302.800 C 275.430 302.800,274.800 302.980,274.800 303.200 C 274.800 303.420,274.260 303.600,273.600 303.600 C 272.940 303.600,272.400 303.780,272.400 304.000 C 272.400 304.220,271.860 304.400,271.200 304.400 C 270.540 304.400,270.000 304.580,270.000 304.800 C 270.000 305.020,269.640 305.200,269.200 305.200 C 268.760 305.200,268.400 305.380,268.400 305.600 C 268.400 305.820,267.860 306.000,267.200 306.000 C 266.540 306.000,266.000 306.180,266.000 306.400 C 266.000 306.620,265.640 306.800,265.200 306.800 C 264.760 306.800,264.400 306.980,264.400 307.200 C 264.400 307.420,264.040 307.600,263.600 307.600 C 263.160 307.600,262.800 307.746,262.800 307.925 C 262.800 308.104,261.938 308.626,260.885 309.086 C 259.832 309.546,258.619 310.390,258.190 310.961 C 257.761 311.533,257.173 312.000,256.883 312.000 C 256.593 312.000,255.296 313.080,254.000 314.400 C 252.704 315.720,251.364 316.800,251.022 316.800 C 250.680 316.800,250.400 317.080,250.400 317.422 C 250.400 317.764,249.320 319.104,248.000 320.400 C 246.680 321.696,245.600 322.996,245.600 323.290 C 245.600 323.583,245.240 324.083,244.800 324.400 C 244.360 324.717,244.000 325.185,244.000 325.439 C 244.000 325.694,243.721 326.134,243.380 326.416 C 242.660 327.014,241.200 330.069,241.200 330.978 C 241.200 331.320,241.020 331.600,240.800 331.600 C 240.580 331.600,240.400 331.960,240.400 332.400 C 240.400 332.840,240.220 333.200,240.000 333.200 C 239.780 333.200,239.600 333.560,239.600 334.000 C 239.600 334.440,239.420 334.800,239.200 334.800 C 238.980 334.800,238.800 335.340,238.800 336.000 C 238.800 336.660,238.620 337.200,238.400 337.200 C 238.180 337.200,238.000 337.740,238.000 338.400 C 238.000 339.060,237.820 339.600,237.600 339.600 C 237.380 339.600,237.200 340.039,237.200 340.576 C 237.200 341.113,237.020 341.664,236.800 341.800 C 236.580 341.936,236.400 342.667,236.400 343.424 C 236.400 344.181,236.220 344.800,236.000 344.800 C 235.778 344.800,235.600 345.867,235.600 347.200 C 235.600 348.533,235.422 349.600,235.200 349.600 C 234.978 349.600,234.800 350.667,234.800 352.000 C 234.800 353.333,234.622 354.400,234.400 354.400 C 234.180 354.400,234.000 355.390,234.000 356.600 C 234.000 357.810,233.820 358.800,233.600 358.800 C 233.378 358.800,233.200 359.867,233.200 361.200 C 233.200 362.533,233.022 363.600,232.800 363.600 C 232.578 363.600,232.400 364.667,232.400 366.000 L 232.400 368.400 200.000 368.400 L 167.600 368.400 167.600 366.000 C 167.600 364.667,167.422 363.600,167.200 363.600 C 166.978 363.600,166.800 362.533,166.800 361.200 C 166.800 359.867,166.622 358.800,166.400 358.800 C 166.180 358.800,166.000 357.810,166.000 356.600 C 166.000 355.390,165.820 354.400,165.600 354.400 C 165.378 354.400,165.200 353.333,165.200 352.000 C 165.200 350.667,165.022 349.600,164.800 349.600 C 164.578 349.600,164.400 348.533,164.400 347.200 C 164.400 345.867,164.222 344.800,164.000 344.800 C 163.780 344.800,163.600 344.181,163.600 343.424 C 163.600 342.667,163.420 341.936,163.200 341.800 C 162.980 341.664,162.800 341.113,162.800 340.576 C 162.800 340.039,162.620 339.600,162.400 339.600 C 162.180 339.600,162.000 339.060,162.000 338.400 C 162.000 337.740,161.820 337.200,161.600 337.200 C 161.380 337.200,161.200 336.660,161.200 336.000 C 161.200 335.340,161.020 334.800,160.800 334.800 C 160.580 334.800,160.400 334.440,160.400 334.000 C 160.400 333.560,160.220 333.200,160.000 333.200 C 159.780 333.200,159.600 332.840,159.600 332.400 C 159.600 331.960,159.420 331.600,159.200 331.600 C 158.980 331.600,158.800 331.320,158.800 330.978 C 158.800 330.069,157.340 327.014,156.620 326.416 C 156.279 326.134,156.000 325.694,156.000 325.439 C 156.000 325.185,155.640 324.717,155.200 324.400 C 154.760 324.083,154.400 323.583,154.400 323.290 C 154.400 322.996,153.320 321.696,152.000 320.400 C 150.680 319.104,149.600 317.764,149.600 317.422 C 149.600 317.080,149.320 316.800,148.978 316.800 C 148.636 316.800,147.296 315.720,146.000 314.400 C 144.704 313.080,143.407 312.000,143.117 312.000 C 142.827 312.000,142.239 311.533,141.810 310.961 C 141.381 310.390,140.168 309.546,139.115 309.086 C 138.062 308.626,137.200 308.104,137.200 307.925 C 137.200 307.746,136.840 307.600,136.400 307.600 C 135.960 307.600,135.600 307.420,135.600 307.200 C 135.600 306.980,135.240 306.800,134.800 306.800 C 134.360 306.800,134.000 306.620,134.000 306.400 C 134.000 306.180,133.460 306.000,132.800 306.000 C 132.140 306.000,131.600 305.820,131.600 305.600 C 131.600 305.380,131.240 305.200,130.800 305.200 C 130.360 305.200,130.000 305.020,130.000 304.800 C 130.000 304.580,129.460 304.400,128.800 304.400 C 128.140 304.400,127.600 304.220,127.600 304.000 C 127.600 303.780,127.060 303.600,126.400 303.600 C 125.740 303.600,125.200 303.420,125.200 303.200 C 125.200 302.980,124.570 302.800,123.800 302.800 C 123.030 302.800,122.400 302.620,122.400 302.400 C 122.400 302.180,121.500 302.000,120.400 302.000 C 119.300 302.000,118.400 301.820,118.400 301.600 C 118.400 301.346,115.267 301.200,109.800 301.200 C 104.333 301.200,101.200 301.346,101.200 301.600 C 101.200 301.820,100.300 302.000,99.200 302.000 C 98.100 302.000,97.200 302.180,97.200 302.400 C 97.200 302.620,96.480 302.800,95.600 302.800 C 94.720 302.800,94.000 302.980,94.000 303.200 C 94.000 303.420,93.561 303.600,93.024 303.600 C 92.487 303.600,91.936 303.780,91.800 304.000 C 91.664 304.220,91.113 304.400,90.576 304.400 C 90.039 304.400,89.600 304.580,89.600 304.800 C 89.600 305.020,89.060 305.200,88.400 305.200 C 87.740 305.200,87.200 305.380,87.200 305.600 C 87.200 305.820,86.660 306.000,86.000 306.000 C 85.340 306.000,84.800 306.180,84.800 306.400 C 84.800 306.620,84.440 306.800,84.000 306.800 C 83.560 306.800,83.200 306.980,83.200 307.200 C 83.200 307.420,82.660 307.600,82.000 307.600 C 81.340 307.600,80.800 307.780,80.800 308.000 C 80.800 308.220,80.305 308.401,79.700 308.402 C 79.095 308.404,78.084 308.674,77.454 309.002 C 76.824 309.331,75.969 309.600,75.554 309.600 C 75.139 309.600,74.800 309.780,74.800 310.000 C 74.800 310.220,74.260 310.400,73.600 310.400 C 72.940 310.400,72.400 310.580,72.400 310.800 C 72.400 311.020,72.122 311.200,71.782 311.200 C 71.086 311.200,69.200 309.460,69.200 308.818 C 69.200 308.588,69.020 308.400,68.800 308.400 C 68.580 308.400,68.400 308.040,68.400 307.600 C 68.400 307.160,68.220 306.800,68.000 306.800 C 67.780 306.800,67.600 306.480,67.600 306.088 C 67.600 305.697,67.240 305.117,66.800 304.800 C 66.360 304.483,66.000 303.903,66.000 303.512 C 66.000 303.120,65.820 302.800,65.600 302.800 C 65.380 302.800,65.200 302.440,65.200 302.000 C 65.200 301.560,65.020 301.200,64.800 301.200 C 64.580 301.200,64.400 300.880,64.400 300.488 C 64.400 300.097,64.040 299.517,63.600 299.200 C 63.160 298.883,62.800 298.303,62.800 297.912 C 62.800 297.520,62.620 297.200,62.400 297.200 C 62.180 297.200,62.000 296.880,62.000 296.488 C 62.000 296.097,61.640 295.517,61.200 295.200 C 60.760 294.883,60.400 294.303,60.400 293.912 C 60.400 293.520,60.257 293.200,60.082 293.200 C 59.907 293.200,59.430 292.390,59.022 291.400 C 58.613 290.410,58.127 289.600,57.940 289.600 C 57.753 289.600,57.600 289.240,57.600 288.800 C 57.600 288.360,57.420 288.000,57.200 288.000 C 56.980 288.000,56.800 287.640,56.800 287.200 C 56.800 286.760,56.620 286.400,56.400 286.400 C 56.180 286.400,56.000 286.080,56.000 285.688 C 56.000 285.297,55.640 284.717,55.200 284.400 C 54.760 284.083,54.400 283.503,54.400 283.112 C 54.400 282.720,54.220 282.400,54.000 282.400 C 53.780 282.400,53.600 282.040,53.600 281.600 C 53.600 281.160,53.420 280.800,53.200 280.800 C 52.980 280.800,52.800 280.480,52.800 280.088 C 52.800 279.697,52.440 279.117,52.000 278.800 C 51.560 278.483,51.200 277.903,51.200 277.512 C 51.200 277.120,51.020 276.800,50.800 276.800 C 50.580 276.800,50.400 276.452,50.400 276.027 C 50.400 275.602,50.040 275.140,49.600 275.000 C 49.160 274.860,48.800 274.398,48.800 273.973 C 48.800 273.548,48.620 273.200,48.400 273.200 C 48.180 273.200,48.000 272.840,48.000 272.400 C 48.000 271.960,47.820 271.600,47.600 271.600 C 47.380 271.600,47.200 271.280,47.200 270.888 C 47.200 270.497,46.840 269.917,46.400 269.600 C 45.960 269.283,45.600 268.703,45.600 268.312 C 45.600 267.920,45.420 267.600,45.200 267.600 C 44.980 267.600,44.800 267.240,44.800 266.800 C 44.800 266.360,44.620 266.000,44.400 266.000 C 44.180 266.000,44.000 265.680,44.000 265.288 C 44.000 264.897,43.640 264.317,43.200 264.000 C 42.760 263.683,42.400 263.103,42.400 262.712 C 42.400 262.320,42.220 262.000,42.000 262.000 C 41.780 262.000,41.600 261.662,41.600 261.249 C 41.600 260.836,41.330 260.274,41.000 260.000 C 40.670 259.726,40.400 259.254,40.400 258.951 C 40.400 258.648,40.220 258.400,40.000 258.400 C 39.780 258.400,39.600 258.055,39.600 257.633 C 39.600 257.212,39.380 256.793,39.111 256.704 C 38.648 256.549,40.422 254.400,41.013 254.400 C 41.150 254.400,41.954 253.680,42.800 252.800 C 43.646 251.920,44.543 251.200,44.795 251.200 C 45.046 251.200,46.129 250.300,47.200 249.200 C 48.271 248.100,49.351 247.200,49.600 247.200 C 49.849 247.200,50.929 246.300,52.000 245.200 C 53.071 244.100,54.162 243.200,54.424 243.200 C 55.025 243.200,62.800 235.374,62.800 234.769 C 62.800 234.523,63.340 233.817,64.000 233.200 C 64.660 232.583,65.200 231.831,65.200 231.528 C 65.200 231.225,65.560 230.717,66.000 230.400 C 66.440 230.083,66.800 229.503,66.800 229.112 C 66.800 228.720,66.980 228.400,67.200 228.400 C 67.420 228.400,67.600 228.040,67.600 227.600 C 67.600 227.160,67.780 226.800,68.000 226.800 C 68.220 226.800,68.400 226.440,68.400 226.000 C 68.400 225.560,68.580 225.200,68.800 225.200 C 69.020 225.200,69.200 224.930,69.200 224.600 C 69.200 224.270,69.380 224.000,69.600 224.000 C 69.820 224.000,70.000 223.640,70.000 223.200 C 70.000 222.760,70.180 222.400,70.400 222.400 C 70.620 222.400,70.800 222.040,70.800 221.600 C 70.800 221.160,70.980 220.800,71.200 220.800 C 71.420 220.800,71.600 220.260,71.600 219.600 C 71.600 218.940,71.780 218.400,72.000 218.400 C 72.220 218.400,72.400 217.860,72.400 217.200 C 72.400 216.540,72.580 216.000,72.800 216.000 C 73.020 216.000,73.200 215.280,73.200 214.400 C 73.200 213.520,73.380 212.800,73.600 212.800 C 73.820 212.800,74.000 211.821,74.000 210.624 C 74.000 209.427,74.180 208.336,74.400 208.200 C 74.940 207.866,74.940 192.134,74.400 191.800 C 74.180 191.664,74.000 190.573,74.000 189.376 C 74.000 188.179,73.820 187.200,73.600 187.200 C 73.380 187.200,73.200 186.480,73.200 185.600 C 73.200 184.720,73.020 184.000,72.800 184.000 C 72.580 184.000,72.400 183.460,72.400 182.800 C 72.400 182.140,72.220 181.600,72.000 181.600 C 71.780 181.600,71.600 181.060,71.600 180.400 C 71.600 179.740,71.420 179.200,71.200 179.200 C 70.980 179.200,70.800 178.840,70.800 178.400 C 70.800 177.960,70.620 177.600,70.400 177.600 C 70.180 177.600,70.000 177.240,70.000 176.800 C 70.000 176.360,69.820 176.000,69.600 176.000 C 69.380 176.000,69.200 175.730,69.200 175.400 C 69.200 175.070,69.020 174.800,68.800 174.800 C 68.580 174.800,68.400 174.440,68.400 174.000 C 68.400 173.560,68.220 173.200,68.000 173.200 C 67.780 173.200,67.600 172.840,67.600 172.400 C 67.600 171.960,67.420 171.600,67.200 171.600 C 66.980 171.600,66.800 171.280,66.800 170.888 C 66.800 170.497,66.440 169.917,66.000 169.600 C 65.560 169.283,65.200 168.775,65.200 168.472 C 65.200 168.169,64.660 167.417,64.000 166.800 C 63.340 166.183,62.800 165.477,62.800 165.231 C 62.800 164.626,55.025 156.800,54.424 156.800 C 54.162 156.800,53.071 155.900,52.000 154.800 C 50.929 153.700,49.849 152.800,49.600 152.800 C 49.351 152.800,48.271 151.900,47.200 150.800 C 46.129 149.700,45.046 148.800,44.795 148.800 C 44.543 148.800,43.646 148.080,42.800 147.200 C 41.954 146.320,41.150 145.600,41.013 145.600 C 40.422 145.600,38.648 143.451,39.111 143.296 C 39.380 143.207,39.600 142.788,39.600 142.367 C 39.600 141.945,39.780 141.600,40.000 141.600 C 40.220 141.600,40.400 141.352,40.400 141.049 C 40.400 140.746,40.670 140.274,41.000 140.000 C 41.330 139.726,41.600 139.164,41.600 138.751 C 41.600 138.338,41.780 138.000,42.000 138.000 C 42.220 138.000,42.400 137.680,42.400 137.288 C 42.400 136.897,42.760 136.317,43.200 136.000 C 43.640 135.683,44.000 135.103,44.000 134.712 C 44.000 134.320,44.180 134.000,44.400 134.000 C 44.620 134.000,44.800 133.640,44.800 133.200 C 44.800 132.760,44.980 132.400,45.200 132.400 C 45.420 132.400,45.600 132.080,45.600 131.688 C 45.600 131.297,45.960 130.717,46.400 130.400 C 46.840 130.083,47.200 129.503,47.200 129.112 C 47.200 128.720,47.380 128.400,47.600 128.400 C 47.820 128.400,48.000 128.040,48.000 127.600 C 48.000 127.160,48.180 126.800,48.400 126.800 C 48.620 126.800,48.800 126.452,48.800 126.027 C 48.800 125.602,49.160 125.140,49.600 125.000 C 50.040 124.860,50.400 124.398,50.400 123.973 C 50.400 123.548,50.580 123.200,50.800 123.200 C 51.020 123.200,51.200 122.880,51.200 122.488 C 51.200 122.097,51.560 121.517,52.000 121.200 C 52.440 120.883,52.800 120.303,52.800 119.912 C 52.800 119.520,52.980 119.200,53.200 119.200 C 53.420 119.200,53.600 118.840,53.600 118.400 C 53.600 117.960,53.780 117.600,54.000 117.600 C 54.220 117.600,54.400 117.280,54.400 116.888 C 54.400 116.497,54.760 115.917,55.200 115.600 C 55.640 115.283,56.000 114.703,56.000 114.312 C 56.000 113.920,56.180 113.600,56.400 113.600 C 56.620 113.600,56.800 113.240,56.800 112.800 C 56.800 112.360,56.980 112.000,57.200 112.000 C 57.420 112.000,57.600 111.640,57.600 111.200 C 57.600 110.760,57.777 110.400,57.992 110.400 C 58.208 110.400,58.498 109.950,58.636 109.400 C 58.774 108.850,59.047 108.400,59.243 108.400 C 59.440 108.400,59.600 108.040,59.600 107.600 C 59.600 107.160,59.780 106.800,60.000 106.800 C 60.220 106.800,60.400 106.480,60.400 106.088 C 60.400 105.697,60.760 105.117,61.200 104.800 C 61.640 104.483,62.000 103.903,62.000 103.512 C 62.000 103.120,62.180 102.800,62.400 102.800 C 62.620 102.800,62.800 102.480,62.800 102.088 C 62.800 101.697,63.160 101.117,63.600 100.800 C 64.040 100.483,64.400 99.903,64.400 99.512 C 64.400 99.120,64.580 98.800,64.800 98.800 C 65.020 98.800,65.200 98.440,65.200 98.000 C 65.200 97.560,65.380 97.200,65.600 97.200 C 65.820 97.200,66.000 96.880,66.000 96.488 C 66.000 96.097,66.360 95.517,66.800 95.200 C 67.240 94.883,67.600 94.303,67.600 93.912 C 67.600 93.520,67.780 93.200,68.000 93.200 C 68.220 93.200,68.400 92.840,68.400 92.400 C 68.400 91.960,68.580 91.600,68.800 91.600 C 69.020 91.600,69.200 91.412,69.200 91.182 C 69.200 90.540,71.086 88.800,71.782 88.800 C 72.122 88.800,72.400 88.980,72.400 89.200 C 72.400 89.420,72.940 89.600,73.600 89.600 C 74.260 89.600,74.800 89.780,74.800 90.000 C 74.800 90.220,75.139 90.400,75.554 90.400 C 75.969 90.400,76.824 90.669,77.454 90.998 C 78.084 91.326,79.095 91.596,79.700 91.598 C 80.305 91.599,80.800 91.780,80.800 92.000 C 80.800 92.220,81.340 92.400,82.000 92.400 C 82.660 92.400,83.200 92.580,83.200 92.800 C 83.200 93.020,83.560 93.200,84.000 93.200 C 84.440 93.200,84.800 93.380,84.800 93.600 C 84.800 93.820,85.340 94.000,86.000 94.000 C 86.660 94.000,87.200 94.180,87.200 94.400 C 87.200 94.620,87.740 94.800,88.400 94.800 C 89.060 94.800,89.600 94.980,89.600 95.200 C 89.600 95.420,90.039 95.600,90.576 95.600 C 91.113 95.600,91.664 95.780,91.800 96.000 C 91.936 96.220,92.487 96.400,93.024 96.400 C 93.561 96.400,94.000 96.580,94.000 96.800 C 94.000 97.020,94.720 97.200,95.600 97.200 C 96.480 97.200,97.200 97.380,97.200 97.600 C 97.200 97.820,98.100 98.000,99.200 98.000 C 100.300 98.000,101.200 98.180,101.200 98.400 C 101.200 98.654,104.333 98.800,109.800 98.800 C 115.267 98.800,118.400 98.654,118.400 98.400 C 118.400 98.180,119.300 98.000,120.400 98.000 C 121.500 98.000,122.400 97.820,122.400 97.600 C 122.400 97.380,123.030 97.200,123.800 97.200 C 124.570 97.200,125.200 97.020,125.200 96.800 C 125.200 96.580,125.740 96.400,126.400 96.400 C 127.060 96.400,127.600 96.220,127.600 96.000 C 127.600 95.780,128.140 95.600,128.800 95.600 C 129.460 95.600,130.000 95.420,130.000 95.200 C 130.000 94.980,130.360 94.800,130.800 94.800 C 131.240 94.800,131.600 94.620,131.600 94.400 C 131.600 94.180,132.140 94.000,132.800 94.000 C 133.460 94.000,134.000 93.820,134.000 93.600 C 134.000 93.380,134.360 93.200,134.800 93.200 C 135.240 93.200,135.600 93.020,135.600 92.800 C 135.600 92.580,135.960 92.400,136.400 92.400 C 136.840 92.400,137.200 92.223,137.200 92.008 C 137.200 91.792,137.695 91.493,138.300 91.343 C 138.905 91.193,139.635 90.740,139.923 90.335 C 140.210 89.931,140.665 89.600,140.934 89.600 C 141.203 89.600,141.683 89.240,142.000 88.800 C 142.317 88.360,142.809 88.000,143.092 88.000 C 143.765 88.000,154.400 77.365,154.400 76.692 C 154.400 76.409,154.760 75.917,155.200 75.600 C 155.640 75.283,156.000 74.821,156.000 74.574 C 156.000 74.326,156.360 73.798,156.800 73.400 C 157.240 73.002,157.600 72.434,157.600 72.138 C 157.600 71.842,157.764 71.600,157.965 71.600 C 158.166 71.600,158.451 70.880,158.600 70.000 C 158.749 69.120,159.034 68.400,159.235 68.400 C 159.436 68.400,159.600 68.040,159.600 67.600 C 159.600 67.160,159.780 66.800,160.000 66.800 C 160.220 66.800,160.400 66.440,160.400 66.000 C 160.400 65.560,160.580 65.200,160.800 65.200 C 161.020 65.200,161.200 64.660,161.200 64.000 C 161.200 63.340,161.380 62.800,161.600 62.800 C 161.820 62.800,162.000 62.260,162.000 61.600 C 162.000 60.940,162.180 60.400,162.400 60.400 C 162.620 60.400,162.800 59.950,162.800 59.400 C 162.800 58.850,162.980 58.400,163.200 58.400 C 163.420 58.400,163.600 57.680,163.600 56.800 C 163.600 55.920,163.780 55.200,164.000 55.200 C 164.222 55.200,164.400 54.133,164.400 52.800 C 164.400 51.467,164.578 50.400,164.800 50.400 C 165.022 50.400,165.200 49.333,165.200 48.000 C 165.200 46.667,165.378 45.600,165.600 45.600 C 165.820 45.600,166.000 44.610,166.000 43.400 C 166.000 42.190,166.180 41.200,166.400 41.200 C 166.622 41.200,166.800 40.133,166.800 38.800 C 166.800 37.467,166.978 36.400,167.200 36.400 C 167.422 36.400,167.600 35.333,167.600 34.000 L 167.600 31.600 200.000 31.600 L 232.400 31.600 232.400 34.000 M190.400 122.800 C 190.400 123.022,189.333 123.200,188.000 123.200 C 186.667 123.200,185.600 123.378,185.600 123.600 C 185.600 123.820,184.700 124.000,183.600 124.000 C 182.500 124.000,181.600 124.154,181.600 124.343 C 181.600 124.532,180.483 124.803,179.118 124.946 C 177.752 125.088,176.456 125.384,176.238 125.602 C 176.019 125.821,175.426 126.000,174.920 126.000 C 174.414 126.000,174.000 126.180,174.000 126.400 C 174.000 126.620,173.460 126.800,172.800 126.800 C 172.140 126.800,171.600 126.980,171.600 127.200 C 171.600 127.420,171.060 127.600,170.400 127.600 C 169.740 127.600,169.200 127.780,169.200 128.000 C 169.200 128.220,168.840 128.400,168.400 128.400 C 167.960 128.400,167.600 128.580,167.600 128.800 C 167.600 129.020,167.240 129.200,166.800 129.200 C 166.360 129.200,166.000 129.380,166.000 129.600 C 166.000 129.820,165.640 130.000,165.200 130.000 C 164.760 130.000,164.400 130.180,164.400 130.400 C 164.400 130.620,164.040 130.800,163.600 130.800 C 163.160 130.800,162.800 130.980,162.800 131.200 C 162.800 131.420,162.480 131.600,162.088 131.600 C 161.697 131.600,161.117 131.960,160.800 132.400 C 160.483 132.840,159.903 133.200,159.512 133.200 C 159.120 133.200,158.800 133.380,158.800 133.600 C 158.800 133.820,158.570 134.000,158.288 134.000 C 158.007 134.000,157.517 134.360,157.200 134.800 C 156.883 135.240,156.375 135.600,156.072 135.600 C 155.769 135.600,155.017 136.140,154.400 136.800 C 153.783 137.460,153.067 138.000,152.808 138.000 C 152.549 138.000,151.646 138.720,150.800 139.600 C 149.954 140.480,148.991 141.200,148.660 141.200 C 147.874 141.200,141.200 147.874,141.200 148.660 C 141.200 148.991,140.480 149.954,139.600 150.800 C 138.720 151.646,138.000 152.549,138.000 152.808 C 138.000 153.067,137.460 153.783,136.800 154.400 C 136.140 155.017,135.600 155.769,135.600 156.072 C 135.600 156.375,135.240 156.883,134.800 157.200 C 134.360 157.517,134.000 158.007,134.000 158.288 C 134.000 158.570,133.820 158.800,133.600 158.800 C 133.380 158.800,133.200 159.120,133.200 159.512 C 133.200 159.903,132.840 160.483,132.400 160.800 C 131.960 161.117,131.600 161.697,131.600 162.088 C 131.600 162.480,131.420 162.800,131.200 162.800 C 130.980 162.800,130.800 163.160,130.800 163.600 C 130.800 164.040,130.620 164.400,130.400 164.400 C 130.180 164.400,130.000 164.760,130.000 165.200 C 130.000 165.640,129.820 166.000,129.600 166.000 C 129.380 166.000,129.200 166.360,129.200 166.800 C 129.200 167.240,129.020 167.600,128.800 167.600 C 128.580 167.600,128.400 167.960,128.400 168.400 C 128.400 168.840,128.220 169.200,128.000 169.200 C 127.780 169.200,127.600 169.740,127.600 170.400 C 127.600 171.060,127.420 171.600,127.200 171.600 C 126.980 171.600,126.800 172.140,126.800 172.800 C 126.800 173.460,126.620 174.000,126.400 174.000 C 126.180 174.000,126.000 174.414,126.000 174.920 C 126.000 175.426,125.821 176.019,125.602 176.238 C 125.384 176.456,125.088 177.752,124.946 179.118 C 124.803 180.483,124.532 181.600,124.343 181.600 C 124.154 181.600,124.000 182.500,124.000 183.600 C 124.000 184.700,123.820 185.600,123.600 185.600 C 123.378 185.600,123.200 186.667,123.200 188.000 C 123.200 189.333,123.022 190.400,122.800 190.400 C 122.544 190.400,122.400 193.867,122.400 200.000 C 122.400 206.133,122.544 209.600,122.800 209.600 C 123.022 209.600,123.200 210.667,123.200 212.000 C 123.200 213.333,123.378 214.400,123.600 214.400 C 123.820 214.400,124.000 215.300,124.000 216.400 C 124.000 217.500,124.154 218.400,124.343 218.400 C 124.532 218.400,124.803 219.517,124.946 220.882 C 125.088 222.248,125.384 223.544,125.602 223.762 C 125.821 223.981,126.000 224.574,126.000 225.080 C 126.000 225.586,126.180 226.000,126.400 226.000 C 126.620 226.000,126.800 226.540,126.800 227.200 C 126.800 227.860,126.980 228.400,127.200 228.400 C 127.420 228.400,127.600 228.940,127.600 229.600 C 127.600 230.260,127.780 230.800,128.000 230.800 C 128.220 230.800,128.400 231.160,128.400 231.600 C 128.400 232.040,128.580 232.400,128.800 232.400 C 129.020 232.400,129.200 232.760,129.200 233.200 C 129.200 233.640,129.380 234.000,129.600 234.000 C 129.820 234.000,130.000 234.360,130.000 234.800 C 130.000 235.240,130.180 235.600,130.400 235.600 C 130.620 235.600,130.800 235.960,130.800 236.400 C 130.800 236.840,130.980 237.200,131.200 237.200 C 131.420 237.200,131.600 237.520,131.600 237.912 C 131.600 238.303,131.960 238.883,132.400 239.200 C 132.840 239.517,133.200 240.097,133.200 240.488 C 133.200 240.880,133.380 241.200,133.600 241.200 C 133.820 241.200,134.000 241.430,134.000 241.712 C 134.000 241.993,134.360 242.483,134.800 242.800 C 135.240 243.117,135.600 243.625,135.600 243.928 C 135.600 244.231,136.140 244.983,136.800 245.600 C 137.460 246.217,138.000 246.933,138.000 247.192 C 138.000 247.451,138.720 248.354,139.600 249.200 C 140.480 250.046,141.200 251.001,141.200 251.324 C 141.200 252.128,147.824 258.800,148.622 258.800 C 148.974 258.800,149.954 259.520,150.800 260.400 C 151.646 261.280,152.549 262.000,152.808 262.000 C 153.067 262.000,153.783 262.540,154.400 263.200 C 155.017 263.860,155.769 264.400,156.072 264.400 C 156.375 264.400,156.883 264.760,157.200 265.200 C 157.517 265.640,158.007 266.000,158.288 266.000 C 158.570 266.000,158.800 266.180,158.800 266.400 C 158.800 266.620,159.120 266.800,159.512 266.800 C 159.903 266.800,160.483 267.160,160.800 267.600 C 161.117 268.040,161.697 268.400,162.088 268.400 C 162.480 268.400,162.800 268.580,162.800 268.800 C 162.800 269.020,163.160 269.200,163.600 269.200 C 164.040 269.200,164.400 269.380,164.400 269.600 C 164.400 269.820,164.760 270.000,165.200 270.000 C 165.640 270.000,166.000 270.180,166.000 270.400 C 166.000 270.620,166.360 270.800,166.800 270.800 C 167.240 270.800,167.600 270.980,167.600 271.200 C 167.600 271.420,167.960 271.600,168.400 271.600 C 168.840 271.600,169.200 271.780,169.200 272.000 C 169.200 272.220,169.740 272.400,170.400 272.400 C 171.060 272.400,171.600 272.580,171.600 272.800 C 171.600 273.020,172.140 273.200,172.800 273.200 C 173.460 273.200,174.000 273.380,174.000 273.600 C 174.000 273.820,174.414 274.000,174.920 274.000 C 175.426 274.000,176.019 274.179,176.238 274.398 C 176.456 274.616,177.752 274.912,179.118 275.054 C 180.483 275.197,181.600 275.468,181.600 275.657 C 181.600 275.846,182.500 276.000,183.600 276.000 C 184.700 276.000,185.600 276.180,185.600 276.400 C 185.600 276.629,186.800 276.800,188.400 276.800 C 190.000 276.800,191.200 276.971,191.200 277.200 C 191.200 277.455,194.400 277.600,200.000 277.600 C 205.600 277.600,208.800 277.455,208.800 277.200 C 208.800 276.971,210.000 276.800,211.600 276.800 C 213.200 276.800,214.400 276.629,214.400 276.400 C 214.400 276.180,215.300 276.000,216.400 276.000 C 217.500 276.000,218.400 275.846,218.400 275.657 C 218.400 275.468,219.517 275.197,220.882 275.054 C 222.248 274.912,223.544 274.616,223.762 274.398 C 223.981 274.179,224.574 274.000,225.080 274.000 C 225.586 274.000,226.000 273.820,226.000 273.600 C 226.000 273.380,226.540 273.200,227.200 273.200 C 227.860 273.200,228.400 273.020,228.400 272.800 C 228.400 272.580,228.760 272.400,229.200 272.400 C 229.640 272.400,230.000 272.220,230.000 272.000 C 230.000 271.780,230.540 271.600,231.200 271.600 C 231.860 271.600,232.400 271.420,232.400 271.200 C 232.400 270.980,232.760 270.800,233.200 270.800 C 233.640 270.800,234.000 270.620,234.000 270.400 C 234.000 270.180,234.360 270.000,234.800 270.000 C 235.240 270.000,235.600 269.820,235.600 269.600 C 235.600 269.380,235.960 269.200,236.400 269.200 C 236.840 269.200,237.200 269.020,237.200 268.800 C 237.200 268.580,237.520 268.400,237.912 268.400 C 238.303 268.400,238.883 268.040,239.200 267.600 C 239.517 267.160,240.097 266.800,240.488 266.800 C 240.880 266.800,241.200 266.620,241.200 266.400 C 241.200 266.180,241.430 266.000,241.712 266.000 C 241.993 266.000,242.483 265.640,242.800 265.200 C 243.117 264.760,243.625 264.400,243.928 264.400 C 244.231 264.400,244.983 263.860,245.600 263.200 C 246.217 262.540,246.933 262.000,247.192 262.000 C 247.451 262.000,248.354 261.280,249.200 260.400 C 250.046 259.520,251.019 258.800,251.363 258.800 C 251.707 258.800,253.521 257.267,255.394 255.394 C 257.267 253.521,258.800 251.707,258.800 251.363 C 258.800 251.019,259.520 250.046,260.400 249.200 C 261.280 248.354,262.000 247.451,262.000 247.192 C 262.000 246.933,262.540 246.217,263.200 245.600 C 263.860 244.983,264.400 244.231,264.400 243.928 C 264.400 243.625,264.760 243.117,265.200 242.800 C 265.640 242.483,266.000 241.993,266.000 241.712 C 266.000 241.430,266.180 241.200,266.400 241.200 C 266.620 241.200,266.800 240.880,266.800 240.488 C 266.800 240.097,267.160 239.517,267.600 239.200 C 268.040 238.883,268.400 238.303,268.400 237.912 C 268.400 237.520,268.580 237.200,268.800 237.200 C 269.020 237.200,269.200 236.840,269.200 236.400 C 269.200 235.960,269.380 235.600,269.600 235.600 C 269.820 235.600,270.000 235.240,270.000 234.800 C 270.000 234.360,270.180 234.000,270.400 234.000 C 270.620 234.000,270.800 233.640,270.800 233.200 C 270.800 232.760,270.980 232.400,271.200 232.400 C 271.420 232.400,271.600 232.040,271.600 231.600 C 271.600 231.160,271.780 230.800,272.000 230.800 C 272.220 230.800,272.400 230.260,272.400 229.600 C 272.400 228.940,272.580 228.400,272.800 228.400 C 273.020 228.400,273.200 227.860,273.200 227.200 C 273.200 226.540,273.380 226.000,273.600 226.000 C 273.820 226.000,274.000 225.586,274.000 225.080 C 274.000 224.574,274.179 223.981,274.398 223.762 C 274.616 223.544,274.912 222.248,275.054 220.882 C 275.197 219.517,275.468 218.400,275.657 218.400 C 275.846 218.400,276.000 217.500,276.000 216.400 C 276.000 215.300,276.180 214.400,276.400 214.400 C 276.622 214.400,276.800 213.333,276.800 212.000 C 276.800 210.667,276.978 209.600,277.200 209.600 C 277.456 209.600,277.600 206.133,277.600 200.000 C 277.600 193.867,277.456 190.400,277.200 190.400 C 276.978 190.400,276.800 189.333,276.800 188.000 C 276.800 186.667,276.622 185.600,276.400 185.600 C 276.180 185.600,276.000 184.700,276.000 183.600 C 276.000 182.500,275.846 181.600,275.657 181.600 C 275.468 181.600,275.197 180.483,275.054 179.118 C 274.912 177.752,274.616 176.456,274.398 176.238 C 274.179 176.019,274.000 175.426,274.000 174.920 C 274.000 174.414,273.820 174.000,273.600 174.000 C 273.380 174.000,273.200 173.460,273.200 172.800 C 273.200 172.140,273.020 171.600,272.800 171.600 C 272.580 171.600,272.400 171.060,272.400 170.400 C 272.400 169.740,272.220 169.200,272.000 169.200 C 271.780 169.200,271.600 168.840,271.600 168.400 C 271.600 167.960,271.420 167.600,271.200 167.600 C 270.980 167.600,270.800 167.240,270.800 166.800 C 270.800 166.360,270.620 166.000,270.400 166.000 C 270.180 166.000,270.000 165.640,270.000 165.200 C 270.000 164.760,269.820 164.400,269.600 164.400 C 269.380 164.400,269.200 164.040,269.200 163.600 C 269.200 163.160,269.020 162.800,268.800 162.800 C 268.580 162.800,268.400 162.480,268.400 162.088 C 268.400 161.697,268.040 161.117,267.600 160.800 C 267.160 160.483,266.800 159.903,266.800 159.512 C 266.800 159.120,266.620 158.800,266.400 158.800 C 266.180 158.800,266.000 158.570,266.000 158.288 C 266.000 158.007,265.640 157.517,265.200 157.200 C 264.760 156.883,264.400 156.375,264.400 156.072 C 264.400 155.769,263.860 155.017,263.200 154.400 C 262.540 153.783,262.000 153.067,262.000 152.808 C 262.000 152.549,261.280 151.646,260.400 150.800 C 259.520 149.954,258.800 148.974,258.800 148.622 C 258.800 147.824,252.128 141.200,251.324 141.200 C 251.001 141.200,250.046 140.480,249.200 139.600 C 248.354 138.720,247.451 138.000,247.192 138.000 C 246.933 138.000,246.217 137.460,245.600 136.800 C 244.983 136.140,244.231 135.600,243.928 135.600 C 243.625 135.600,243.117 135.240,242.800 134.800 C 242.483 134.360,241.993 134.000,241.712 134.000 C 241.430 134.000,241.200 133.820,241.200 133.600 C 241.200 133.380,240.880 133.200,240.488 133.200 C 240.097 133.200,239.517 132.840,239.200 132.400 C 238.883 131.960,238.303 131.600,237.912 131.600 C 237.520 131.600,237.200 131.420,237.200 131.200 C 237.200 130.980,236.840 130.800,236.400 130.800 C 235.960 130.800,235.600 130.620,235.600 130.400 C 235.600 130.180,235.240 130.000,234.800 130.000 C 234.360 130.000,234.000 129.820,234.000 129.600 C 234.000 129.380,233.640 129.200,233.200 129.200 C 232.760 129.200,232.400 129.020,232.400 128.800 C 232.400 128.580,232.040 128.400,231.600 128.400 C 231.160 128.400,230.800 128.220,230.800 128.000 C 230.800 127.780,230.260 127.600,229.600 127.600 C 228.940 127.600,228.400 127.420,228.400 127.200 C 228.400 126.980,227.860 126.800,227.200 126.800 C 226.540 126.800,226.000 126.620,226.000 126.400 C 226.000 126.180,225.586 126.000,225.080 126.000 C 224.574 126.000,223.981 125.821,223.762 125.602 C 223.544 125.384,222.248 125.088,220.882 124.946 C 219.517 124.803,218.400 124.532,218.400 124.343 C 218.400 124.154,217.500 124.000,216.400 124.000 C 215.300 124.000,214.400 123.820,214.400 123.600 C 214.400 123.378,213.333 123.200,212.000 123.200 C 210.667 123.200,209.600 123.022,209.600 122.800 C 209.600 122.544,206.133 122.400,200.000 122.400 C 193.867 122.400,190.400 122.544,190.400 122.800 M206.800 155.600 C 206.800 155.820,207.430 156.000,208.200 156.000 C 208.970 156.000,209.600 156.180,209.600 156.400 C 209.600 156.620,210.320 156.800,211.200 156.800 C 212.080 156.800,212.800 156.980,212.800 157.200 C 212.800 157.420,213.340 157.600,214.000 157.600 C 214.660 157.600,215.200 157.757,215.200 157.948 C 215.200 158.140,216.100 158.416,217.200 158.562 C 218.300 158.708,219.200 159.001,219.200 159.214 C 219.200 159.426,219.560 159.600,220.000 159.600 C 220.440 159.600,220.800 159.780,220.800 160.000 C 220.800 160.220,221.120 160.400,221.512 160.400 C 221.903 160.400,222.483 160.760,222.800 161.200 C 223.117 161.640,223.685 162.000,224.061 162.000 C 224.438 162.000,224.860 162.360,225.000 162.800 C 225.140 163.240,225.514 163.600,225.831 163.600 C 226.584 163.600,236.400 173.416,236.400 174.169 C 236.400 174.486,236.760 174.860,237.200 175.000 C 237.640 175.140,238.000 175.602,238.000 176.027 C 238.000 176.452,238.180 176.800,238.400 176.800 C 238.620 176.800,238.800 177.120,238.800 177.512 C 238.800 177.903,239.160 178.483,239.600 178.800 C 240.040 179.117,240.400 179.697,240.400 180.088 C 240.400 180.480,240.569 180.800,240.775 180.800 C 240.982 180.800,241.273 181.612,241.422 182.605 C 241.571 183.598,241.852 184.508,242.046 184.629 C 242.241 184.749,242.400 185.377,242.400 186.024 C 242.400 186.671,242.580 187.200,242.800 187.200 C 243.020 187.200,243.200 187.920,243.200 188.800 C 243.200 189.680,243.380 190.400,243.600 190.400 C 243.820 190.400,244.000 191.210,244.000 192.200 C 244.000 193.190,244.180 194.000,244.400 194.000 C 244.649 194.000,244.800 196.267,244.800 200.000 C 244.800 203.733,244.649 206.000,244.400 206.000 C 244.180 206.000,244.000 206.810,244.000 207.800 C 244.000 208.790,243.820 209.600,243.600 209.600 C 243.380 209.600,243.200 210.320,243.200 211.200 C 243.200 212.080,243.020 212.800,242.800 212.800 C 242.580 212.800,242.400 213.229,242.400 213.754 C 242.400 214.279,242.131 215.224,241.802 215.854 C 241.474 216.484,241.204 217.495,241.202 218.100 C 241.201 218.705,241.020 219.200,240.800 219.200 C 240.580 219.200,240.400 219.520,240.400 219.912 C 240.400 220.303,240.040 220.883,239.600 221.200 C 239.160 221.517,238.800 222.097,238.800 222.488 C 238.800 222.880,238.620 223.200,238.400 223.200 C 238.180 223.200,238.000 223.548,238.000 223.973 C 238.000 224.398,237.640 224.860,237.200 225.000 C 236.760 225.140,236.400 225.514,236.400 225.831 C 236.400 226.584,226.584 236.400,225.831 236.400 C 225.514 236.400,225.140 236.760,225.000 237.200 C 224.860 237.640,224.398 238.000,223.973 238.000 C 223.548 238.000,223.200 238.180,223.200 238.400 C 223.200 238.620,222.880 238.800,222.488 238.800 C 222.097 238.800,221.517 239.160,221.200 239.600 C 220.883 240.040,220.303 240.400,219.912 240.400 C 219.520 240.400,219.200 240.569,219.200 240.775 C 219.200 240.982,218.388 241.273,217.395 241.422 C 216.402 241.571,215.492 241.852,215.371 242.046 C 215.251 242.241,214.623 242.400,213.976 242.400 C 213.329 242.400,212.800 242.580,212.800 242.800 C 212.800 243.020,212.080 243.200,211.200 243.200 C 210.320 243.200,209.600 243.380,209.600 243.600 C 209.600 243.820,208.970 244.000,208.200 244.000 C 207.430 244.000,206.800 244.180,206.800 244.400 C 206.800 244.651,204.267 244.800,200.000 244.800 C 195.733 244.800,193.200 244.651,193.200 244.400 C 193.200 244.180,192.570 244.000,191.800 244.000 C 191.030 244.000,190.400 243.820,190.400 243.600 C 190.400 243.380,189.680 243.200,188.800 243.200 C 187.920 243.200,187.200 243.020,187.200 242.800 C 187.200 242.580,186.771 242.400,186.246 242.400 C 185.721 242.400,184.776 242.131,184.146 241.802 C 183.516 241.474,182.505 241.204,181.900 241.202 C 181.295 241.201,180.800 241.020,180.800 240.800 C 180.800 240.580,180.480 240.400,180.088 240.400 C 179.697 240.400,179.117 240.040,178.800 239.600 C 178.483 239.160,177.903 238.800,177.512 238.800 C 177.120 238.800,176.800 238.620,176.800 238.400 C 176.800 238.180,176.452 238.000,176.027 238.000 C 175.602 238.000,175.140 237.640,175.000 237.200 C 174.860 236.760,174.486 236.400,174.169 236.400 C 173.416 236.400,163.600 226.584,163.600 225.831 C 163.600 225.514,163.240 225.140,162.800 225.000 C 162.360 224.860,162.000 224.398,162.000 223.973 C 162.000 223.548,161.820 223.200,161.600 223.200 C 161.380 223.200,161.200 222.880,161.200 222.488 C 161.200 222.097,160.840 221.517,160.400 221.200 C 159.960 220.883,159.600 220.303,159.600 219.912 C 159.600 219.520,159.426 219.200,159.214 219.200 C 159.001 219.200,158.708 218.300,158.562 217.200 C 158.416 216.100,158.140 215.200,157.948 215.200 C 157.757 215.200,157.600 214.660,157.600 214.000 C 157.600 213.340,157.420 212.800,157.200 212.800 C 156.980 212.800,156.800 212.080,156.800 211.200 C 156.800 210.320,156.620 209.600,156.400 209.600 C 156.180 209.600,156.000 208.970,156.000 208.200 C 156.000 207.430,155.820 206.800,155.600 206.800 C 155.349 206.800,155.200 204.267,155.200 200.000 C 155.200 195.733,155.349 193.200,155.600 193.200 C 155.820 193.200,156.000 192.570,156.000 191.800 C 156.000 191.030,156.180 190.400,156.400 190.400 C 156.620 190.400,156.800 189.680,156.800 188.800 C 156.800 187.920,156.980 187.200,157.200 187.200 C 157.420 187.200,157.600 186.660,157.600 186.000 C 157.600 185.340,157.757 184.800,157.948 184.800 C 158.140 184.800,158.416 183.900,158.562 182.800 C 158.708 181.700,159.001 180.800,159.214 180.800 C 159.426 180.800,159.600 180.480,159.600 180.088 C 159.600 179.697,159.960 179.117,160.400 178.800 C 160.840 178.483,161.200 177.903,161.200 177.512 C 161.200 177.120,161.380 176.800,161.600 176.800 C 161.820 176.800,162.000 176.452,162.000 176.027 C 162.000 175.602,162.360 175.140,162.800 175.000 C 163.240 174.860,163.600 174.486,163.600 174.169 C 163.600 173.852,165.848 171.344,168.596 168.596 C 171.344 165.848,173.852 163.600,174.169 163.600 C 174.486 163.600,174.860 163.240,175.000 162.800 C 175.140 162.360,175.602 162.000,176.027 162.000 C 176.452 162.000,176.800 161.820,176.800 161.600 C 176.800 161.380,177.120 161.200,177.512 161.200 C 177.903 161.200,178.483 160.840,178.800 160.400 C 179.117 159.960,179.697 159.600,180.088 159.600 C 180.480 159.600,180.800 159.443,180.800 159.252 C 180.800 159.060,181.700 158.784,182.800 158.638 C 183.900 158.492,184.800 158.199,184.800 157.986 C 184.800 157.774,185.340 157.600,186.000 157.600 C 186.660 157.600,187.200 157.420,187.200 157.200 C 187.200 156.980,187.920 156.800,188.800 156.800 C 189.680 156.800,190.400 156.620,190.400 156.400 C 190.400 156.180,191.030 156.000,191.800 156.000 C 192.570 156.000,193.200 155.820,193.200 155.600 C 193.200 155.349,195.733 155.200,200.000 155.200 C 204.267 155.200,206.800 155.349,206.800 155.600 " stroke="none" fill="#04fcfc" fill-rule="evenodd"></path><path id="path1" d="" stroke="none" fill="#08fcfc" fill-rule="evenodd"></path><path id="path2" d="" stroke="none" fill="#08fcfc" fill-rule="evenodd"></path><path id="path3" d="" stroke="none" fill="#08fcfc" fill-rule="evenodd"></path><path id="path4" d="" stroke="none" fill="#08fcfc" fill-rule="evenodd"></path></g></svg>