<svg xmlns="http://www.w3.org/2000/svg" height="48" viewBox="0 -960 960 960" width="48"><path d="M480.012-365.913q52.668 0 95.371-25.283 42.704-25.282 70.226-68.326-36.044-26.521-78.376-41.043-42.333-14.522-87.448-14.522-45.115 0-87.233 14.522-42.117 14.522-77.161 41.043 26.522 43.044 69.237 68.326 42.716 25.283 95.384 25.283Zm.127-200q31.031 0 52.989-21.804 21.959-21.804 21.959-52.422 0-31.031-21.989-52.99-21.988-21.958-52.866-21.958-30.877 0-52.598 21.989-21.721 21.988-21.721 52.866 0 30.877 21.804 52.598t52.422 21.721ZM480-170.87q128.906-117.132 190.377-212.241 61.471-95.108 61.471-168.909 0-114.346-72.926-187.087-72.927-72.741-178.906-72.741t-178.422 72.753q-72.442 72.753-72.442 186.854 0 73.763 62.46 168.681Q354.072-288.643 480-170.87Zm0 101.74Q315.049-209.11 233.449-329.438q-81.601-120.328-81.601-222.593 0-154.172 98.878-245.646 98.879-91.475 229.009-91.475t229.774 91.496q99.643 91.497 99.643 245.705 0 102.213-82.101 222.532Q644.951-209.1 480-69.13ZM480-552Z"/></svg>